<svg width="70" height="70" viewBox="0 0 70 70" fill="none" xmlns="http://www.w3.org/2000/svg">
<rect width="70" height="70" rx="8" fill="white"/>
<path d="M12.002 15.48C11.954 15.304 12.762 15.216 14.426 15.216C16.266 15.216 17.21 15.368 17.258 15.672L18.434 25.776L20.978 15.552C21.058 15.312 21.682 15.192 22.85 15.192C24.018 15.192 24.642 15.304 24.722 15.528L27.218 25.824L28.61 15.624C28.642 15.448 29.01 15.328 29.714 15.264C30.418 15.2 30.986 15.168 31.418 15.168C33.098 15.168 33.914 15.28 33.866 15.504L30.962 31.416C30.898 31.656 30.442 31.832 29.594 31.944C28.746 32.056 28.058 32.112 27.53 32.112C25.546 32.112 24.506 31.888 24.41 31.44L22.778 24.84L21.002 31.416C20.938 31.704 20.378 31.912 19.322 32.04C18.778 32.088 18.234 32.112 17.69 32.112L16.154 32.04C15.098 31.928 14.538 31.728 14.474 31.44L12.002 15.48Z" fill="#F64060"/>
<path d="M39.461 31.872C39.461 32.016 38.789 32.088 37.445 32.088C36.117 32.088 35.453 31.976 35.453 31.752V15.312C35.453 15.2 35.701 15.12 36.197 15.072C36.693 15.024 37.109 15 37.445 15C38.789 15 39.461 15.144 39.461 15.432V20.232C40.357 19.96 41.037 19.824 41.501 19.824C42.717 19.824 43.677 20.152 44.381 20.808C45.085 21.448 45.437 22.648 45.437 24.408V31.848C45.437 31.992 44.813 32.064 43.565 32.064C42.157 32.016 41.453 31.936 41.453 31.824V24.768C41.453 23.984 41.197 23.592 40.685 23.592C40.333 23.592 39.925 23.76 39.461 24.096V31.872Z" fill="#F64060"/>
<path d="M46.6365 20.16C46.6365 19.984 47.3645 19.896 48.8205 19.896C50.2925 19.896 51.0525 19.976 51.1005 20.136L52.8285 25.8L54.4845 20.088C54.5485 19.96 55.0445 19.896 55.9725 19.896C58.1005 19.896 59.1165 20 59.0205 20.208L53.3805 36.264C53.3645 36.36 52.9245 36.408 52.0605 36.408C51.2125 36.408 50.4205 36.376 49.6845 36.312C48.9485 36.264 48.5965 36.2 48.6285 36.12L50.7165 31.08L46.6365 20.16Z" fill="#F64060"/>
<path d="M6.00202 37.52C5.95402 37.344 6.76202 37.256 8.42602 37.256C10.266 37.256 11.21 37.408 11.258 37.712L12.434 47.816L14.978 37.592C15.058 37.352 15.682 37.232 16.85 37.232C18.018 37.232 18.642 37.344 18.722 37.568L21.218 47.864L22.61 37.664C22.642 37.488 23.01 37.368 23.714 37.304C24.418 37.24 24.986 37.208 25.418 37.208C27.098 37.208 27.914 37.32 27.866 37.544L24.962 53.456C24.898 53.696 24.442 53.872 23.594 53.984C22.746 54.096 22.058 54.152 21.53 54.152C19.546 54.152 18.506 53.928 18.41 53.48L16.778 46.88L15.002 53.456C14.938 53.744 14.378 53.952 13.322 54.08C12.778 54.128 12.234 54.152 11.69 54.152L10.154 54.08C9.09802 53.968 8.53802 53.768 8.47402 53.48L6.00202 37.52Z" fill="#F64060"/>
<path d="M33.461 53.912C33.461 54.056 32.789 54.128 31.445 54.128C30.117 54.128 29.453 54.016 29.453 53.792V37.352C29.453 37.24 29.701 37.16 30.197 37.112C30.693 37.064 31.109 37.04 31.445 37.04C32.789 37.04 33.461 37.184 33.461 37.472V42.272C34.357 42 35.037 41.864 35.501 41.864C36.717 41.864 37.677 42.192 38.381 42.848C39.085 43.488 39.437 44.688 39.437 46.448V53.888C39.437 54.032 38.813 54.104 37.565 54.104C36.157 54.056 35.453 53.976 35.453 53.864V46.808C35.453 46.024 35.197 45.632 34.685 45.632C34.333 45.632 33.925 45.8 33.461 46.136V53.912Z" fill="#F64060"/>
<path d="M50.5485 53.432C49.5405 54.024 48.2445 54.32 46.6605 54.32C45.0765 54.32 43.7405 53.784 42.6525 52.712C41.5645 51.624 41.0205 50.128 41.0205 48.224C41.0205 46.304 41.5405 44.76 42.5805 43.592C43.6365 42.424 44.9645 41.84 46.5645 41.84C48.1645 41.84 49.3965 42.248 50.2605 43.064C51.1405 43.88 51.5805 44.872 51.5805 46.04C51.5805 48.632 50.0925 49.928 47.1165 49.928H45.4605C45.4605 50.408 45.5885 50.744 45.8445 50.936C46.1165 51.112 46.5085 51.2 47.0205 51.2C48.1405 51.2 49.2045 50.944 50.2125 50.432C50.2285 50.416 50.3005 50.528 50.4285 50.768C50.8125 51.456 51.0045 52.04 51.0045 52.52C51.0045 52.984 50.8525 53.288 50.5485 53.432ZM47.5485 46.496C47.5485 45.824 47.2205 45.488 46.5645 45.488C46.2605 45.488 45.9965 45.584 45.7725 45.776C45.5645 45.952 45.4605 46.216 45.4605 46.568V47.312H46.7565C47.2845 47.312 47.5485 47.04 47.5485 46.496Z" fill="#F64060"/>
<path d="M58.1643 53.936C58.1643 54.048 57.5883 54.104 56.4363 54.104C54.8363 54.056 54.0363 53.968 54.0363 53.84V46.064H53.4123C52.9963 46.064 52.7243 45.712 52.5963 45.008C52.5643 44.8 52.5483 44.592 52.5483 44.384C52.5483 43.888 52.6443 43.392 52.8363 42.896C53.1243 42.192 53.5723 41.84 54.1803 41.84C54.7883 41.84 55.3323 41.984 55.8123 42.272C56.2923 42.56 56.6123 42.848 56.7723 43.136C57.7803 42.272 58.9803 41.84 60.3723 41.84C61.7643 41.84 62.7723 42.216 63.3963 42.968C64.0203 43.72 64.3323 44.952 64.3323 46.664V53.864C64.3323 54.056 63.6443 54.152 62.2683 54.152C60.9083 54.152 60.2283 54.056 60.2283 53.864V46.928C60.2283 46.128 59.9483 45.728 59.3883 45.728C59.2283 45.728 59.0043 45.8 58.7163 45.944C58.4283 46.072 58.2443 46.168 58.1643 46.232V53.936Z" fill="#F64060"/>
</svg>
