<svg width="70" height="70" viewBox="0 0 70 70" fill="none" xmlns="http://www.w3.org/2000/svg">
<rect width="70" height="70" rx="8" fill="white"/>
<path d="M11.6095 13.44C11.5615 13.264 12.3695 13.176 14.0335 13.176C15.8735 13.176 16.8175 13.328 16.8655 13.632L18.0415 23.736L20.5855 13.512C20.6655 13.272 21.2895 13.152 22.4575 13.152C23.6255 13.152 24.2495 13.264 24.3295 13.488L26.8255 23.784L28.2175 13.584C28.2495 13.408 28.6175 13.288 29.3215 13.224C30.0255 13.16 30.5935 13.128 31.0255 13.128C32.7055 13.128 33.5215 13.24 33.4735 13.464L30.5695 29.376C30.5055 29.616 30.0495 29.792 29.2015 29.904C28.3535 30.016 27.6655 30.072 27.1375 30.072C25.1535 30.072 24.1135 29.848 24.0175 29.4L22.3855 22.8L20.6095 29.376C20.5455 29.664 19.9855 29.872 18.9295 30C18.3855 30.048 17.8415 30.072 17.2975 30.072L15.7615 30C14.7055 29.888 14.1455 29.688 14.0815 29.4L11.6095 13.44ZM39.0685 29.832C39.0685 29.976 38.3965 30.048 37.0525 30.048C35.7245 30.048 35.0605 29.936 35.0605 29.712V13.272C35.0605 13.16 35.3085 13.08 35.8045 13.032C36.3005 12.984 36.7165 12.96 37.0525 12.96C38.3965 12.96 39.0685 13.104 39.0685 13.392V18.192C39.9645 17.92 40.6445 17.784 41.1085 17.784C42.3245 17.784 43.2845 18.112 43.9885 18.768C44.6925 19.408 45.0445 20.608 45.0445 22.368V29.808C45.0445 29.952 44.4205 30.024 43.1725 30.024C41.7645 29.976 41.0605 29.896 41.0605 29.784V22.728C41.0605 21.944 40.8045 21.552 40.2925 21.552C39.9405 21.552 39.5325 21.72 39.0685 22.056V29.832ZM46.2439 18.12C46.2439 17.944 46.9719 17.856 48.4279 17.856C49.8999 17.856 50.6599 17.936 50.7079 18.096L52.4359 23.76L54.0919 18.048C54.1559 17.92 54.6519 17.856 55.5799 17.856C57.7079 17.856 58.7239 17.96 58.6279 18.168L52.9879 34.224C52.9719 34.32 52.5319 34.368 51.6679 34.368C50.8199 34.368 50.0279 34.336 49.2919 34.272C48.5559 34.224 48.2039 34.16 48.2359 34.08L50.3239 29.04L46.2439 18.12ZM10.4024 40.44C10.3544 40.264 11.1624 40.176 12.8264 40.176C14.6664 40.176 15.6104 40.328 15.6584 40.632L16.8344 50.736L19.3784 40.512C19.4584 40.272 20.0824 40.152 21.2504 40.152C22.4184 40.152 23.0424 40.264 23.1224 40.488L25.6184 50.784L27.0104 40.584C27.0424 40.408 27.4104 40.288 28.1144 40.224C28.8184 40.16 29.3864 40.128 29.8184 40.128C31.4984 40.128 32.3144 40.24 32.2664 40.464L29.3624 56.376C29.2984 56.616 28.8424 56.792 27.9944 56.904C27.1464 57.016 26.4584 57.072 25.9304 57.072C23.9464 57.072 22.9064 56.848 22.8104 56.4L21.1784 49.8L19.4024 56.376C19.3384 56.664 18.7784 56.872 17.7224 57C17.1784 57.048 16.6344 57.072 16.0904 57.072L14.5544 57C13.4984 56.888 12.9384 56.688 12.8744 56.4L10.4024 40.44ZM34.8967 48.288C34.4487 47.488 34.2247 46.84 34.2247 46.344C34.2247 45.832 34.3607 45.504 34.6327 45.36C35.5447 44.96 36.7927 44.76 38.3767 44.76C39.9767 44.76 41.1047 45.136 41.7607 45.888C42.4167 46.624 42.7447 47.72 42.7447 49.176V52.968H43.5607C43.8327 52.968 44.0407 53.128 44.1847 53.448C44.3447 53.768 44.4247 54.208 44.4247 54.768C44.4247 55.328 44.2807 55.88 43.9927 56.424C43.7207 56.968 43.3447 57.24 42.8647 57.24C42.0007 57.24 41.3047 57.008 40.7767 56.544C40.5367 56.352 40.3527 56.12 40.2247 55.848C39.4887 56.776 38.3447 57.24 36.7927 57.24C35.6247 57.24 34.6407 56.824 33.8407 55.992C33.0407 55.16 32.6407 54.176 32.6407 53.04C32.6407 50.432 34.2007 49.128 37.3207 49.128H38.6407V48.888C38.6407 48.472 38.5687 48.208 38.4247 48.096C38.2967 47.968 37.9847 47.904 37.4887 47.904C36.8807 47.904 36.0167 48.032 34.8967 48.288ZM36.8167 52.704C36.8167 53.056 36.9127 53.328 37.1047 53.52C37.2967 53.696 37.5367 53.784 37.8247 53.784C38.1287 53.784 38.4007 53.664 38.6407 53.424V51.576H37.9687C37.2007 51.576 36.8167 51.952 36.8167 52.704ZM50.1751 56.856C50.1751 56.984 49.4391 57.048 47.9671 57.048C46.5111 57.048 45.7831 56.992 45.7831 56.88V45.096C45.7831 44.984 46.5111 44.928 47.9671 44.928C49.4391 44.928 50.1751 44.976 50.1751 45.072V56.856ZM50.1751 43.656C50.1751 43.768 49.4391 43.824 47.9671 43.824C46.5111 43.824 45.7831 43.776 45.7831 43.68V40.224C45.7831 40.064 46.5111 39.984 47.9671 39.984C49.4391 39.984 50.1751 40.032 50.1751 40.128V43.656ZM57.8656 56.856C57.8656 57.048 57.1936 57.144 55.8496 57.144C54.2496 57.08 53.4496 56.976 53.4496 56.832V48.336H52.2256C51.9056 48.336 51.7456 47.784 51.7456 46.68C51.7456 46.392 51.7696 46.04 51.8176 45.624C51.8816 45.208 52.0016 45 52.1776 45H53.4496V42.888C53.4496 42.568 54.1216 42.408 55.4656 42.408C56.8256 42.408 57.5056 42.536 57.5056 42.792V44.328L57.5296 45H59.5696C59.8416 45 59.9776 45.56 59.9776 46.68C59.9776 47.8 59.8416 48.36 59.5696 48.36H57.8656V56.856Z" fill="#40A2E3"/>
</svg>
