<svg width="348" height="285" viewBox="0 0 348 285" fill="none" xmlns="http://www.w3.org/2000/svg">
<path opacity="0.24" d="M0.820038 278.318C0.834473 281.599 101.977 284.837 185.027 284.472C268.077 284.106 347.512 281.069 347.498 277.788C347.483 274.507 269.428 269.947 186.378 270.313C103.329 270.679 0.805603 275.038 0.820038 278.318Z" fill="#565684"/>
<path d="M134.494 147.538V276.515L142.642 276.508L148.988 154.034L149.257 148.811L134.494 147.538Z" fill="#D1B48F"/>
<g opacity="0.24">
<path d="M134.494 148.811V154.034H148.988L149.257 148.811H134.494Z" fill="black"/>
</g>
<path d="M199.626 177.269L156.809 272.226H167.392L208.455 180.076L199.626 177.269Z" fill="#B79C7E"/>
<path d="M211.119 5.7752C211.486 9.22775 211.364 12.7503 211.052 16.1884C210.529 21.9578 209.504 27.7814 208.224 33.4303C207.247 37.7451 205.641 41.7503 203.697 45.6719C197.953 42.1306 195.344 33.0255 194.119 25.2401C192.637 15.8233 195.311 7.88858 204.322 4.82133C204.649 4.70372 207.128 7.47586 207.468 7.38134C207.478 7.37845 208.948 8.37201 208.958 8.36912C210.336 9.3331 209.739 4.81123 211.119 5.7752Z" fill="#FFF0DC"/>
<path d="M136.204 251.183L142.846 155.353C142.846 155.353 166.755 176.567 168.256 185.604C171.922 207.684 159.765 255.678 159.765 255.678L136.204 251.183Z" fill="#306A99"/>
<path d="M157.304 264.672C157.304 264.672 160.514 274.775 156.274 276.484C152.034 278.192 143.739 276.875 141.454 277.032C137.922 277.275 116.455 278.971 114.976 279.08C108.052 279.59 105.824 273.278 108.782 273.071C115.587 272.596 139.845 260.984 139.845 260.984L157.304 264.672Z" fill="#EAEAEA"/>
<path d="M114.429 276.027C115.915 275.911 137.374 274.533 140.91 274.295C143.197 274.129 151.942 274.721 156.192 273.018C157.642 272.426 158.262 270.954 158.443 269.266C158.465 269.071 158.479 268.862 158.486 268.66C158.645 265.55 157.555 262.029 157.555 262.029L139.668 258.63C139.668 258.63 135.743 260.543 130.628 263.075C130.375 263.198 130.123 263.32 129.863 263.45C128.975 263.89 128.059 264.338 127.121 264.8C126.868 264.93 126.609 265.059 126.349 265.182C125.072 265.817 123.773 266.474 122.481 267.123H122.474C122.222 267.253 121.955 267.376 121.702 267.498C120.699 268.01 119.704 268.516 118.729 269.006C118.477 269.136 118.224 269.266 117.972 269.389C117.943 269.403 117.921 269.417 117.892 269.432C115.713 270.536 113.686 271.214 112.005 271.791C111.752 271.871 111.507 271.95 111.276 272.029C110.28 272.376 109.429 272.693 108.779 273.068C108.592 273.184 110.85 276.294 114.429 276.027Z" fill="#BD79C6"/>
<path d="M209.613 246.6C209.613 246.6 218.282 252.347 217.851 255.952C217.376 259.924 213.826 261.981 208.455 264.676C201.522 268.156 190.874 275.631 183.528 278.478C177.125 280.961 173.107 279.398 171.443 275.642C169.254 270.699 185.868 264.93 187.308 262.272C188.747 259.614 193.304 252.713 193.304 252.713L209.613 246.6Z" fill="#EAEAEA"/>
<path d="M287.479 72.6134C287.479 72.6134 288.472 78.9535 290.866 77.7565C292.276 77.0508 293.539 72.8681 293.539 72.8681L290.229 69.5071L287.479 72.6134Z" fill="#DDA794"/>
<path d="M284.525 78.6388C288.104 78.6388 292.088 73.5296 292.088 70.0677C292.088 66.5466 288.645 63.0897 285.137 63.0897C282.079 63.0897 279.942 65.9593 279.942 70.0677C279.942 75.4345 281.656 78.6388 284.525 78.6388ZM285.137 65.535C287.105 65.535 289.643 67.7335 289.643 70.0684C289.643 72.4163 286.487 76.195 284.525 76.195C283.121 76.195 282.387 73.1133 282.387 70.0684C282.387 68.3844 282.966 65.535 285.137 65.535Z" fill="#E0D0BF"/>
<path d="M271.077 79.9968C272.3 81.9117 275.681 83.2314 278.956 82.9789C282.403 82.7184 285.727 80.714 286.232 75.8169C286.851 69.8693 286.468 63.0089 286.468 63.0089L286.02 62.9923L270.002 62.2672C270.002 62.2672 268.837 76.4684 271.077 79.9968Z" fill="#FFF5E9"/>
<path d="M278.957 82.9789C282.404 82.7184 285.728 80.714 286.233 75.8169C286.852 69.8693 286.469 63.0089 286.469 63.0089L286.021 62.9923L282.362 63.4894C282.362 63.4894 285.141 81.17 279.128 82.9298C279.071 82.9464 279.014 82.9623 278.957 82.9789Z" fill="#E0D0BF"/>
<path d="M296.204 64.4975C295.898 64.1937 290.084 61.5493 288.395 61.0515C284.931 60.0305 289.766 65.6888 291.026 66.0272C292.006 66.2898 296.204 64.4975 296.204 64.4975Z" fill="#DDA794"/>
<path d="M287.706 81.4745C287.577 82.336 292.392 86.8897 296.129 87.4467C299.867 88.0044 303.001 87.7577 303.129 86.8962C303.258 86.0346 300.79 82.9472 297.053 82.3894C293.315 81.8324 287.834 80.613 287.706 81.4745Z" fill="#62386B"/>
<path d="M251.25 184.758L291.062 273.051H280.479L241.262 185.044L251.25 184.758Z" fill="#B79C7E"/>
<path d="M202.034 121.29L183.409 135.48L156.946 135.451L140.888 109.516C140.888 109.516 146.221 100.921 156.115 102.616C160.979 103.45 161.128 106.794 167.812 101.224C174.496 95.6534 180.626 80.7183 189.724 73.6228C196.411 68.4082 202.034 121.29 202.034 121.29Z" fill="#BD79C6"/>
<g opacity="0.24">
<path d="M184.87 95.8879C183.852 97.1102 187.977 125.364 173.311 123.531C158.645 121.697 138.48 116.087 138.48 116.087L131.562 129.641C131.562 129.641 148.462 144.511 149.073 144.714C149.684 144.918 184.853 144.714 184.853 144.714C184.853 144.714 196.946 139.28 197.146 138.196C197.347 137.111 206.92 123.417 206.92 121.845C206.92 120.272 184.87 95.8879 184.87 95.8879Z" fill="#333232"/>
</g>
<path d="M286.436 68.37C286.396 68.9566 286.453 69.5757 286.607 70.2438C286.647 70.4394 286.696 70.6349 286.761 70.8384C286.932 71.4084 287.169 71.9957 287.479 72.6148C287.935 73.511 290.053 70.684 290.632 73.8371C290.892 75.2138 292.97 78.5256 294.732 80.2681C295.231 80.761 303.129 86.8962 303.129 86.8962C303.129 86.8962 303.358 80.5827 303.774 76.9657C304.189 73.3479 300.009 67.7755 299.317 67.0828C299.317 67.0828 296.066 63.6281 293.328 63.3185C290.99 63.058 288.871 63.7832 287.625 65.266C287.422 65.5026 287.242 65.7552 287.087 66.0236C286.802 66.5286 286.598 67.0907 286.509 67.7185C286.46 67.9299 286.436 68.1499 286.436 68.37Z" fill="#FFCCB6"/>
<path d="M201.248 34.2542C199.991 33.405 194.927 32.4302 194.666 35.3502C194.405 38.2703 205.199 48.0724 206.738 46.8032C208.277 45.534 207.74 42.334 207.519 41.9804C207.298 41.6276 203.307 35.6446 201.248 34.2542Z" fill="#DDA794"/>
<path d="M211.502 19.5934C212.812 19.4245 214.072 19.0782 214.999 18.6619C218.174 17.2354 220.57 13.3283 222.281 10.4558C222.874 9.46226 223.585 8.38285 224.207 7.2522C229.879 11.7329 233.765 19.0104 232.33 26.6926C231.21 32.6856 225.422 40.6226 222.31 43.9582C217.969 48.6085 216.958 46.1106 211.082 47.0349C208.528 47.4367 206.343 47.0522 204.466 46.1041C206.162 42.7742 207.578 39.2639 208.509 35.7031C209.88 30.4669 210.857 25.0042 211.502 19.5934Z" fill="#CEB08D"/>
<path d="M252.479 70.2878C264.536 74.1437 268.09 85.6882 270.963 93.312C273.835 100.936 278.044 170.584 260.637 182.816C253.783 187.632 217.246 186.654 198.773 185.745C192.316 185.428 181.459 186.537 179.626 176.232L178.169 142.96C178.169 142.96 216.211 120.771 218.718 115.354C221.224 109.938 218.397 78.413 218.397 78.413C218.397 78.413 228.121 62.4981 252.479 70.2878Z" fill="#C4B9FF"/>
<path d="M204.072 65.4225L228.042 66.1397C223.553 64.5675 224.27 38.9998 224.27 38.9998L212.846 40.5966L208.332 49.2002L207.2 51.3677C207.249 51.4983 207.289 51.6123 207.322 51.7183C207.346 51.7753 207.362 51.8403 207.379 51.8973C207.786 53.095 207.957 54.2849 207.957 55.4249C207.957 55.5389 207.957 55.6449 207.941 55.7589C207.941 56.1825 207.9 56.606 207.852 57.0137V57.0216C207.233 61.7968 204.072 65.4225 204.072 65.4225Z" fill="#FFCCB6"/>
<path d="M187.255 137.181L250.955 142.961C250.955 142.961 258.97 85.6349 249.186 74.7007C246.024 71.1645 240.427 69.6211 235.97 68.3065C235.693 68.2249 235.432 68.0943 235.171 68.0049C232.825 67.1333 230.714 66.5142 229.281 66.131C228.05 65.8049 227.309 65.6505 227.309 65.6505L204.071 65.4225C204.071 65.4225 203.452 65.6996 202.426 66.1722C201.309 66.6938 199.713 67.4428 197.912 68.3231C197.659 68.4537 197.405 68.5727 197.145 68.7062C185.498 74.7014 184.241 81.2032 183.205 83.0099C181.293 86.3449 187.255 137.181 187.255 137.181Z" fill="#BD79C6"/>
<g opacity="0.24">
<path d="M240.73 94.4708C240.73 94.4708 235.302 130.66 249.152 135.481C263.003 140.302 263.493 132.81 263.493 132.81L257.3 112.551L240.73 94.4708Z" fill="#333232"/>
</g>
<path d="M235.97 68.3065C235.97 68.3065 241.087 97.5467 242.904 105.214C247.524 124.687 261.359 137.144 261.359 137.144C261.359 137.144 279.414 141.438 286.657 137.82C293.901 134.202 296.532 113.744 298.48 109.572C300.435 105.392 303.996 95.4925 302.048 92.7067C300.093 89.9201 288.392 85.9358 284.49 87.3291C281.02 88.5672 275.944 100.219 274.876 102.753L274.868 102.777C274.737 103.07 274.672 103.233 274.672 103.233C274.672 103.233 274.485 102.899 274.143 102.312C272.611 99.6479 265.898 88.9316 262.843 84.4422C252.673 69.5085 235.97 68.3065 235.97 68.3065Z" fill="#BD79C6"/>
<path d="M303.133 86.9351L287.706 81.4745L286.332 87.0621L301.899 92.5912L303.133 86.9351Z" fill="#86558E"/>
<path d="M55.5107 137.112H324.214V148.809H55.5107V137.112Z" fill="#FFE8C7"/>
<path d="M141.409 166.94C142.044 171.516 142.981 173.368 145.621 179.569C154.429 200.329 183.528 247.089 183.528 247.089L204.483 238.207L176.224 176.162L176.053 175.788L175.303 174.118L175.295 174.101L189.447 174.46C189.447 174.46 234.984 171.95 243.336 171.535C251.696 171.119 250.937 151.067 250.937 151.067L250.954 148.81H151.015C141.409 148.811 140.373 159.48 141.409 166.94Z" fill="#4183C4"/>
<path d="M325.479 148.811L325.748 154.034L332.168 277.788H340.243V148.811H325.479Z" fill="#D1B48F"/>
<path d="M63.5663 148.811V277.788H71.6403L78.0526 154.034L78.3218 148.811H63.5663Z" fill="#D1B48F"/>
<path d="M171.077 274.973C171.892 276.207 176.041 279.108 185.154 273.978C190.075 271.207 201.518 264.388 207.904 261.279C210.913 259.814 217.941 255.283 216.245 252.115C216.043 251.733 215.726 251.3 215.343 250.831C215.22 250.679 215.083 250.528 214.946 250.376C212.457 247.569 207.861 243.94 207.861 243.94L191.554 250.051C191.554 250.051 190.731 252.887 189.757 255.557C189.664 255.817 189.57 256.076 189.469 256.329C189.072 257.368 188.661 258.335 188.278 259.042C188.264 259.071 188.249 259.107 188.213 259.136C188.213 259.136 188.213 259.15 188.206 259.15C188.105 259.323 187.925 259.511 187.687 259.734C187.672 259.749 187.658 259.763 187.636 259.771L187.629 259.785C187.441 259.951 187.232 260.124 186.987 260.319C186.474 260.716 185.832 261.17 185.103 261.639C185.082 261.654 185.06 261.675 185.039 261.69C184.974 261.726 184.909 261.776 184.844 261.82L184.353 262.137C184.331 262.152 184.303 262.166 184.281 262.188C184.216 262.224 184.151 262.267 184.086 262.318C183.523 262.671 182.932 263.061 182.326 263.45C182.066 263.609 181.806 263.782 181.539 263.948C181.359 264.056 181.186 264.172 181.012 264.287C180.962 264.323 180.911 264.352 180.861 264.388C180.659 264.518 180.442 264.648 180.24 264.785C180.183 264.814 180.132 264.857 180.074 264.893C175.918 267.614 172.585 270.327 171.589 272.636C171.524 272.787 171.466 272.939 171.423 273.09C171.416 273.105 171.416 273.126 171.409 273.148C171.272 273.595 170.911 274.735 171.077 274.973Z" fill="#BD79C6"/>
<path d="M320.987 43.899C309.003 43.899 299.288 34.1838 299.288 22.1995C299.288 10.2152 309.003 0.5 320.987 0.5C332.971 0.5 342.687 10.2152 342.687 22.1995C342.687 34.1838 332.971 43.899 320.987 43.899Z" fill="#C4B9FF"/>
<path d="M320.987 41.2632C331.498 41.2632 340.051 32.7115 340.051 22.1995C340.051 11.6874 331.499 3.13574 320.987 3.13574C310.475 3.13574 301.923 11.6874 301.923 22.1995C301.923 32.7115 310.476 41.2632 320.987 41.2632ZM320.987 3.92294C331.065 3.92294 339.263 12.1218 339.263 22.1995C339.263 32.2772 331.064 40.476 320.987 40.476C310.91 40.476 302.711 32.2772 302.711 22.1995C302.711 12.1218 310.91 3.92294 320.987 3.92294Z" fill="#8C85C9"/>
<path d="M319.28 22.2991C319.28 23.1621 319.98 23.862 320.843 23.862C321.706 23.862 322.405 23.1621 322.405 22.2991C322.405 21.4362 321.706 20.737 320.843 20.737C319.98 20.737 319.28 21.4362 319.28 22.2991Z" fill="#8C85C9"/>
<path d="M320.427 22.8669C320.65 22.8669 320.872 22.7724 321.027 22.5892C321.309 22.2572 321.268 21.7608 320.937 21.4794L314.777 16.2497C314.445 15.9683 313.948 16.0087 313.667 16.3399C313.386 16.6718 313.426 17.1682 313.758 17.4496L319.917 22.6793C320.066 22.8049 320.247 22.8669 320.427 22.8669Z" fill="#8C85C9"/>
<path d="M321.18 23.3208C321.232 23.3208 321.286 23.3157 321.337 23.3049L330.168 21.5083C330.594 21.4217 330.869 21.0061 330.782 20.5797C330.696 20.1532 330.278 19.8798 329.854 19.9649L321.024 21.7616C320.597 21.8481 320.322 22.2637 320.409 22.6902C320.486 23.0632 320.814 23.3208 321.18 23.3208Z" fill="#8C85C9"/>
<path d="M245.345 137.112H345.085V148.809H245.345V137.112Z" fill="#D1B48F"/>
<g opacity="0.24">
<path d="M207.958 55.4248C207.958 55.5388 207.958 55.6449 207.942 55.7589C207.95 55.9378 207.921 56.1435 207.921 56.3231C207.921 56.3231 216.326 54.3786 217.819 48.6748C217.819 48.5442 211.233 50.5039 208.333 50.0804L207.379 51.8972C207.787 53.095 207.958 54.2848 207.958 55.4248Z" fill="#333232"/>
</g>
<path d="M194.938 25.8152C194.938 26.3773 194.97 26.9559 195.027 27.5259C195.06 27.7951 195.101 28.0721 195.141 28.3406L195.198 28.7071C195.255 29.0491 195.345 29.6112 195.459 30.3204C196.07 34.1417 197.479 42.4928 198.694 47.3408C199.427 50.258 201.309 53.1823 202.621 53.5251C204.552 54.0301 207.42 54.1441 209.921 53.9161C212.619 53.6557 215.82 51.4557 217.547 49.3618L223.17 42.5426L222.542 39.6016C228.098 35.4953 225.027 27.2907 224.196 20.1533C223.34 12.7142 216.741 7.29621 209.351 8.55096C207.558 8.8605 205.871 9.43124 204.34 10.2213C204.12 10.3274 203.916 10.4414 203.704 10.5633H203.696C198.311 13.6263 194.857 19.4353 194.938 25.8152Z" fill="#FFCCB6"/>
<path d="M217.792 26.0424C218.128 26.0893 218.268 25.6333 217.968 25.4775C216.425 24.6787 213.853 23.5971 211.577 23.823C208.041 24.1729 206.647 25.4645 207.806 26.1514C208.929 26.8166 209.974 25.673 211.699 25.5294C213.006 25.4197 215.957 25.7848 217.792 26.0424Z" fill="#AA8663"/>
<path d="M194.938 25.8151C194.938 26.3772 194.97 26.9559 195.027 27.5259C195.956 27.1348 196.812 26.8087 197.382 26.6788C199.068 26.2877 200.413 27.062 201.276 26.0843C202.165 25.0655 200.445 24.2674 196.975 25.0171C196.274 25.1715 195.59 25.4486 194.938 25.8151Z" fill="#AA8663"/>
<path d="M201.49 39.9162C201.506 39.9162 201.522 39.9147 201.539 39.9119L206.877 39.0633C207.043 39.0374 207.157 38.8801 207.13 38.7134C207.104 38.5474 206.945 38.4305 206.78 38.4601L201.983 39.2221C202.35 38.3952 202.739 37.7516 203.089 37.1729C203.83 35.9492 204.469 34.8921 204.465 32.8444C204.464 32.6763 204.327 32.5399 204.159 32.5399H204.159C203.99 32.5406 203.853 32.6777 203.853 32.8458C203.858 34.7218 203.288 35.6642 202.566 36.8562C202.136 37.5669 201.649 38.3728 201.205 39.4977C201.165 39.5994 201.183 39.7156 201.252 39.8007C201.311 39.8751 201.399 39.9162 201.49 39.9162Z" fill="#DDA794"/>
<path d="M215.263 29.5116L209.985 29.7086L210.181 30.9482L215.553 30.5246L215.263 29.5116Z" fill="#2B1813"/>
<path d="M211.313 31.319C211.434 32.0882 211.904 32.6539 212.362 32.5817C212.82 32.5096 213.094 31.8277 212.973 31.0578C212.852 30.2887 212.382 29.723 211.924 29.7951C211.466 29.8673 211.192 30.5499 211.313 31.319Z" fill="#2B1813"/>
<path d="M201.512 30.2302L196.234 30.4265L196.429 31.6668L201.837 31.3645L201.512 30.2302Z" fill="#2B1813"/>
<path d="M197.561 32.0377C197.683 32.8068 198.152 33.3725 198.61 33.3003C199.069 33.2282 199.342 32.5456 199.222 31.7765C199.1 31.0073 198.631 30.4416 198.172 30.5138C197.714 30.5859 197.44 31.2678 197.561 32.0377Z" fill="#2B1813"/>
<path d="M198.897 37.6693C199.176 37.6693 199.454 37.6354 199.728 37.5661C200.827 37.2898 201.717 36.4889 202.234 35.312C202.737 34.1706 202.827 32.8025 202.49 31.4619C202.153 30.1213 201.426 28.9589 200.443 28.1912C199.43 27.3989 198.266 27.1146 197.168 27.391C194.94 27.9516 193.702 30.6899 194.407 33.4952C194.745 34.8358 195.471 35.9982 196.454 36.7659C197.214 37.3612 198.058 37.6693 198.897 37.6693ZM197.995 28.1031C198.654 28.1031 199.327 28.3521 199.941 28.8326C200.782 29.4899 201.406 30.4943 201.7 31.661C201.993 32.827 201.918 34.0075 201.488 34.9844C201.074 35.9268 200.379 36.5624 199.529 36.776C198.68 36.9903 197.765 36.7587 196.956 36.1245C196.115 35.4672 195.49 34.4628 195.197 33.296C194.601 30.9258 195.574 28.6313 197.367 28.1804C197.573 28.1291 197.783 28.1031 197.995 28.1031Z" fill="#A569AF"/>
<path d="M204.565 45.4157C205.483 45.4157 206.617 45.0975 207.947 44.1386C208.084 44.0397 208.115 43.8492 208.016 43.7122C207.918 43.5758 207.728 43.5433 207.59 43.6429C204.138 46.1322 202.349 43.9099 202.275 43.8146C202.171 43.6811 201.98 43.658 201.847 43.7605C201.713 43.8644 201.689 44.0563 201.792 44.1891C201.807 44.2071 202.776 45.4157 204.565 45.4157Z" fill="#DDA794"/>
<path d="M204.159 47.843C204.169 47.843 204.179 47.8423 204.19 47.8416L205.812 47.677C205.98 47.6597 206.102 47.5096 206.084 47.3423C206.067 47.1749 205.921 47.0536 205.75 47.0695L204.128 47.234C203.96 47.2513 203.838 47.4014 203.855 47.5688C203.871 47.7254 204.003 47.843 204.159 47.843Z" fill="#DDA794"/>
<path d="M201.914 31.0514C202.06 31.0514 202.2 30.9734 202.274 30.8363C202.698 30.0455 203.238 29.5852 203.882 29.4683C205.199 29.2288 206.599 30.4395 206.613 30.4518C206.782 30.5997 207.041 30.5845 207.188 30.415C207.336 30.2461 207.321 29.9893 207.152 29.8406C207.083 29.78 205.448 28.3571 203.74 28.6667C202.838 28.829 202.104 29.4301 201.556 30.4525C201.45 30.6509 201.524 30.8977 201.724 31.0037C201.783 31.0362 201.849 31.0514 201.914 31.0514Z" fill="#A569AF"/>
<path d="M227.172 32.3588C227.272 32.3588 227.373 32.322 227.452 32.247C227.616 32.0918 227.622 31.8342 227.467 31.6712L226.1 29.5116C226.014 29.4214 225.587 29.0275 224.708 28.9856C222.133 28.863 214.438 29.92 214.438 29.92C214.214 29.9402 214.049 30.1386 214.069 30.363C214.09 30.5867 214.283 30.7563 214.512 30.7317L224.586 29.8154L226.877 32.2318C226.956 32.3162 227.064 32.3588 227.172 32.3588Z" fill="#A569AF"/>
<path d="M220.941 30.9106C222.065 29.8918 226.715 28.334 228.041 30.9489C229.707 34.2333 221.705 45.1307 220.003 44.0924C218.3 43.0541 216.76 40.4219 216.929 40.041C217.098 39.66 219.1 32.5788 220.941 30.9106Z" fill="#FFCCB6"/>
<path d="M226.302 33.1517C226.318 33.1517 226.334 33.1503 226.35 33.1481C226.517 33.1214 226.631 32.9649 226.604 32.7982C226.494 32.1084 226.2 31.6322 225.73 31.3825C224.894 30.941 223.838 31.4244 223.794 31.4453C223.642 31.5167 223.576 31.6978 223.648 31.8508C223.719 32.0031 223.9 32.0716 224.053 31.9987C224.061 31.9951 224.88 31.6214 225.446 31.9237C225.737 32.0788 225.924 32.405 226.001 32.8942C226.024 33.0442 226.154 33.1517 226.302 33.1517Z" fill="#DDA794"/>
<path d="M211.357 37.1404C211.629 37.1404 211.903 37.1079 212.175 37.0393C214.403 36.4787 215.642 33.7398 214.936 30.9344C214.598 29.5938 213.872 28.4314 212.889 27.6637C211.876 26.8707 210.714 26.5872 209.615 26.8635C208.517 27.1399 207.626 27.9408 207.109 29.1176C206.607 30.2591 206.516 31.6271 206.853 32.9677C207.473 35.4318 209.39 37.1404 211.357 37.1404ZM210.441 27.5757C211.1 27.5757 211.773 27.8246 212.387 28.3051C213.227 28.9625 213.852 29.9668 214.146 31.1336C214.741 33.5031 213.768 35.7983 211.976 36.2493C210.183 36.7002 208.24 35.1388 207.644 32.7693C207.351 31.6033 207.425 30.4228 207.855 29.4459C208.268 28.5036 208.965 27.8679 209.814 27.6543C210.02 27.6016 210.23 27.5757 210.441 27.5757Z" fill="#A569AF"/>
<path d="M202.426 66.1722C202.858 67.3699 208.92 69.6211 216.057 69.6211C223.284 69.6211 229.031 66.5221 229.28 66.131C228.05 65.8049 227.308 65.6505 227.308 65.6505L215.852 64.1555L204.071 65.4225C204.071 65.4225 203.452 65.6995 202.426 66.1722Z" fill="#FFCCB6"/>
<path d="M197.146 68.7055C199.085 71.1255 204.039 75.3458 214.867 75.3458C226.689 75.3458 233.484 70.6774 235.969 68.3065C235.7 68.2004 235.431 68.0944 235.17 68.0049C232.71 70.2618 226.151 74.5312 214.866 74.5312C204.657 74.5312 199.842 70.6118 197.911 68.3231C197.659 68.453 197.407 68.5756 197.146 68.7055Z" fill="#7E4C87"/>
<path d="M186.658 132.345C186.672 132.345 186.687 132.344 186.702 132.343C186.925 132.319 187.087 132.118 187.063 131.894C187.028 131.575 183.613 99.9343 183.613 91.164C183.613 90.9389 183.431 90.7563 183.206 90.7563C182.981 90.7563 182.798 90.9389 182.798 91.164C182.798 99.9776 186.218 131.662 186.253 131.981C186.275 132.191 186.452 132.345 186.658 132.345Z" fill="#7E4C87"/>
<path d="M270.801 116.482C270.833 116.49 270.874 116.499 270.907 116.499C271.087 116.499 271.249 116.377 271.298 116.189L274.867 102.778C274.736 103.071 274.671 103.234 274.671 103.234C274.671 103.234 274.484 102.9 274.142 102.313L270.516 115.985C270.458 116.196 270.589 116.425 270.801 116.482Z" fill="#7E4C87"/>
<path d="M252.554 127.921C252.619 127.921 252.686 127.905 252.748 127.871C252.945 127.765 253.019 127.517 252.911 127.32C252.845 127.196 246.226 114.972 245.719 113.796C236.522 92.4808 243.881 75.6806 243.956 75.5139C244.048 75.3083 243.957 75.0673 243.752 74.9749C243.547 74.8804 243.306 74.9735 243.214 75.1784C243.137 75.3494 235.633 92.4772 244.972 114.119C245.493 115.327 251.922 127.202 252.196 127.707C252.269 127.843 252.409 127.921 252.554 127.921Z" fill="#7E4C87"/>
<path d="M294.37 115.18C294.452 115.18 294.536 115.154 294.608 115.102C294.79 114.971 294.831 114.716 294.699 114.534C294.699 114.532 292.938 112.092 290.903 109.179C290.628 108.786 290.69 108.531 290.76 108.373C291.358 107.036 295.821 106.024 298.494 105.701C298.718 105.673 298.876 105.471 298.85 105.247C298.823 105.023 298.619 104.862 298.396 104.891C297.641 104.983 290.996 105.849 290.017 108.041C289.856 108.4 289.763 108.972 290.235 109.646C292.274 112.564 294.039 115.011 294.039 115.011C294.118 115.121 294.243 115.18 294.37 115.18Z" fill="#7E4C87"/>
<path d="M267.466 127.513H314.265V137.141H267.466V127.513Z" fill="#BFD4DD"/>
<path d="M231.974 127.513H272.679V137.123H231.974V127.513Z" fill="#F7F7F7"/>
<g opacity="0.65">
<path d="M231.975 129.372H314.265V130.186H231.975V129.372Z" fill="#779DAA"/>
</g>
<g opacity="0.65">
<path d="M231.975 131.919H314.265V132.734H231.975V131.919Z" fill="#779DAA"/>
</g>
<g opacity="0.65">
<path d="M231.975 134.582H314.265V135.396H231.975V134.582Z" fill="#779DAA"/>
</g>
<path d="M287.088 66.0235C288.082 65.763 289.475 65.592 290.526 65.5429C290.689 65.535 290.819 65.3878 290.811 65.2254C290.803 65.0544 290.664 64.9159 290.493 64.9318C290.094 64.9563 288.823 65.0292 287.625 65.2659C287.422 65.5018 287.243 65.7543 287.088 66.0235Z" fill="#DDA794"/>
<path d="M286.436 68.37C287.316 68.0684 288.995 67.9709 290.184 68.0113C290.347 68.0193 290.493 67.8807 290.501 67.7177C290.509 67.5467 290.371 67.4002 290.207 67.4002C289.719 67.3836 287.804 67.3432 286.508 67.7177C286.461 67.9298 286.436 68.1499 286.436 68.37Z" fill="#DDA794"/>
<path d="M286.607 70.2438C286.647 70.4394 286.696 70.6349 286.761 70.8384C287.779 70.5613 289.214 70.4069 290.207 70.3578C290.378 70.3499 290.509 70.2027 290.501 70.0317C290.493 69.8686 290.33 69.7387 290.175 69.7467C289.703 69.7712 287.951 69.8773 286.607 70.2438Z" fill="#DDA794"/>
<path d="M293.539 78.9167L292.606 83.2084L303.133 86.9344C303.133 86.9344 301.024 79.5892 300.871 79.5892C300.718 79.5892 293.539 78.9167 293.539 78.9167Z" fill="#FFCCB6"/>
<path d="M270.004 62.27C269.986 62.6871 273.657 63.1907 278.204 63.3956C282.751 63.6006 286.453 63.4288 286.472 63.0125C286.491 62.5955 282.82 62.0918 278.273 61.8869C273.725 61.682 270.023 61.8537 270.004 62.27Z" fill="#A08B78"/>
<path d="M126.705 55.3657H152.855C154.153 55.3657 155.205 54.3137 155.205 53.0157V40.8167C155.205 39.5186 154.153 38.4666 152.855 38.4666H126.705C125.407 38.4666 124.355 39.5186 124.355 40.8167V53.015C124.354 54.313 125.407 55.3657 126.705 55.3657Z" fill="#BD79C6"/>
<path d="M127.819 43.7216H150.803C151.028 43.7216 151.211 43.5398 151.211 43.3139C151.211 43.0888 151.028 42.9062 150.803 42.9062H127.819C127.594 42.9062 127.412 43.0888 127.412 43.3139C127.412 43.5398 127.594 43.7216 127.819 43.7216Z" fill="#7E4C87"/>
<path d="M133.316 47.3236H150.437C150.662 47.3236 150.844 47.141 150.844 46.9159C150.844 46.6908 150.662 46.5082 150.437 46.5082H133.316C133.091 46.5082 132.908 46.6908 132.908 46.9159C132.908 47.1417 133.091 47.3236 133.316 47.3236Z" fill="#7E4C87"/>
<path d="M132.949 50.9254H150.803C151.028 50.9254 151.21 50.7429 151.21 50.5178C151.21 50.2927 151.028 50.1101 150.803 50.1101H132.949C132.724 50.1101 132.541 50.2927 132.541 50.5178C132.542 50.7436 132.724 50.9254 132.949 50.9254Z" fill="#7E4C87"/>
<path d="M93.0284 61.5911H107.142C109.559 61.5911 111.517 59.6321 111.517 57.2164V50.3885C111.517 47.9721 109.558 46.0139 107.142 46.0139H93.0284C90.612 46.0139 88.6538 47.9728 88.6538 50.3885V57.2164C88.653 59.6329 90.612 61.5911 93.0284 61.5911Z" fill="#4183C4"/>
<path d="M92.0407 50.6079H107.844C108.069 50.6079 108.251 50.4254 108.251 50.2003C108.251 49.9752 108.069 49.7926 107.844 49.7926H92.0407C91.8156 49.7926 91.633 49.9752 91.633 50.2003C91.6338 50.4254 91.8156 50.6079 92.0407 50.6079Z" fill="#2F6591"/>
<path d="M95.8197 54.2097H107.591C107.816 54.2097 107.999 54.0272 107.999 53.8021C107.999 53.577 107.816 53.3944 107.591 53.3944H95.8197C95.5946 53.3944 95.412 53.577 95.412 53.8021C95.4128 54.0279 95.5946 54.2097 95.8197 54.2097Z" fill="#2F6591"/>
<path d="M95.5683 57.8117H107.844C108.069 57.8117 108.251 57.6292 108.251 57.4041C108.251 57.1789 108.069 56.9964 107.844 56.9964H95.5683C95.3432 56.9964 95.1606 57.1782 95.1606 57.4041C95.1606 57.6299 95.3424 57.8117 95.5683 57.8117Z" fill="#2F6591"/>
<path d="M125.113 83.2841H141.678C143.417 83.2841 144.827 81.8742 144.827 80.1346V70.8556C144.827 69.116 143.417 67.7061 141.678 67.7061H125.113C123.373 67.7061 121.963 69.116 121.963 70.8556V80.1346C121.963 81.8742 123.373 83.2841 125.113 83.2841Z" fill="#C4B9FF"/>
<path d="M125.047 72.1515H140.851C141.076 72.1515 141.258 71.969 141.258 71.7439C141.258 71.5187 141.076 71.3362 140.851 71.3362H125.047C124.822 71.3362 124.639 71.518 124.639 71.7439C124.639 71.9697 124.822 72.1515 125.047 72.1515Z" fill="#9B95D1"/>
<path d="M128.826 75.7533H140.598C140.823 75.7533 141.006 75.5708 141.006 75.3457C141.006 75.1205 140.823 74.938 140.598 74.938H128.826C128.601 74.938 128.419 75.1205 128.419 75.3457C128.419 75.5708 128.601 75.7533 128.826 75.7533Z" fill="#9B95D1"/>
<path d="M128.574 79.3553H140.85C141.075 79.3553 141.258 79.1728 141.258 78.9476C141.258 78.7225 141.075 78.54 140.85 78.54H128.574C128.349 78.54 128.166 78.7225 128.166 78.9476C128.167 79.1735 128.349 79.3553 128.574 79.3553Z" fill="#9B95D1"/>
<path d="M91.6284 103.286C91.5505 103.271 88.598 102.708 88.598 102.708L88.2451 104.644L91.6284 105.254V103.286Z" fill="#6867A5"/>
<path d="M89.9858 99.8151L89.4923 103.034L87.2101 102.64L87.7866 99.4154L89.9858 99.8151Z" fill="#6867A5"/>
<path d="M81.2735 104.669C81.3839 104.962 84.0564 117.735 84.0564 117.735L86.1309 117.297L83.3731 104.299L81.2735 104.669Z" fill="#C4B9FF"/>
<path d="M84.1876 114.535L86.0369 114.665L88.3343 114.82L88.7008 112.637L88.8963 111.496L90.4361 102.436C90.501 102.045 90.2326 101.67 89.8416 101.613L87.3645 101.222C86.9735 101.165 86.6149 101.418 86.5499 101.801C86.2729 103.382 85.5318 107.365 84.9532 110.454C84.8882 110.82 84.8226 111.162 84.7576 111.496C84.684 111.904 84.6111 112.286 84.5455 112.637C84.3261 113.785 84.1876 114.535 84.1876 114.535Z" fill="#BD79C6"/>
<path d="M74.8912 102.289L78.4109 111.495L78.8424 112.636L80.6267 117.297H85.2388L83.2668 112.636L82.7776 111.495L82.7047 111.324V111.308L78.4268 101.221L74.8912 102.289Z" fill="#4183C4"/>
<path d="M76.3519 112.636L76.4904 115.374L76.5315 116.188L77.5741 137.111H90.7977L91.8404 116.188L91.8815 115.374L92.02 112.636H76.3519Z" fill="#BD79C6"/>
<path d="M91.8338 103.325C91.701 103.298 91.556 103.271 91.4225 103.248C91.1606 103.201 90.911 103.374 90.8641 103.636L89.5047 111.17C89.4607 111.415 89.61 111.653 89.8496 111.719L90.2067 111.818C90.4788 111.894 90.7573 111.719 90.8085 111.442L92.2068 103.884C92.2537 103.627 92.09 103.379 91.8338 103.325Z" fill="#6867A5"/>
<path d="M83.373 104.298L83.008 102.515L80.8289 102.909L81.2734 104.669L83.373 104.298Z" fill="#4183C4"/>
<path d="M76.4902 115.374L76.5314 116.188H91.8402L91.8813 115.374H76.4902Z" fill="white"/>
<g opacity="0.24">
<path d="M171.905 171.845L176.053 175.788L176.224 176.162L175.295 174.101L189.447 174.46C189.447 174.46 234.984 171.95 243.336 171.535C251.696 171.119 250.937 151.067 250.937 151.067L250.954 148.81H241.65C241.65 148.81 240.835 165.342 229.428 167.175C218.021 169.009 171.905 171.845 171.905 171.845Z" fill="black"/>
</g>
<g opacity="0.24">
<path d="M325.479 148.811L325.748 154.034H340.243V148.811H325.479Z" fill="black"/>
</g>
<g opacity="0.24">
<path d="M63.5663 148.811V154.034H78.0526L78.3218 148.811H63.5663Z" fill="black"/>
</g>
<path d="M166.569 167.967L176.053 175.788L175.303 174.118L167.091 167.339C166.912 167.192 166.659 167.217 166.512 167.388C166.373 167.568 166.398 167.82 166.569 167.967Z" fill="#2F638E"/>
<path d="M248.835 148.811L249.104 154.034L255.516 279.461H263.598V148.811H248.835Z" fill="#D1B48F"/>
<g opacity="0.24">
<path d="M248.835 148.811L249.104 154.034H263.598V148.811H248.835Z" fill="black"/>
</g>
<path d="M187.63 259.782L191.826 261.745C191.883 261.77 191.94 261.778 191.997 261.778C192.152 261.778 192.299 261.696 192.372 261.55C192.462 261.346 192.38 261.102 192.177 261.004L188.209 259.146C188.103 259.325 187.924 259.512 187.687 259.732C187.671 259.749 187.655 259.765 187.638 259.773L187.63 259.782Z" fill="#EAEAEA"/>
<path d="M189.469 256.329L193.524 258.227C193.582 258.255 193.639 258.263 193.697 258.263C193.849 258.263 194 258.176 194.072 258.032C194.159 257.83 194.079 257.584 193.877 257.483L189.757 255.557C189.664 255.817 189.57 256.076 189.469 256.329Z" fill="#EAEAEA"/>
<path d="M184.085 262.316L188.33 264.899C188.395 264.94 188.469 264.956 188.542 264.956C188.681 264.956 188.819 264.891 188.893 264.761C189.007 264.573 188.95 264.321 188.754 264.207L184.844 261.819L184.354 262.137C184.33 262.153 184.305 262.169 184.281 262.186C184.216 262.226 184.151 262.267 184.085 262.316Z" fill="#EAEAEA"/>
<path d="M180.24 264.784L184.542 267.237C184.607 267.277 184.681 267.286 184.746 267.286C184.884 267.286 185.023 267.221 185.104 267.083C185.21 266.895 185.145 266.651 184.949 266.536L181.014 264.287C180.965 264.32 180.908 264.352 180.859 264.385C180.656 264.515 180.444 264.646 180.24 264.784Z" fill="#EAEAEA"/>
<path d="M177.124 266.904L181.426 269.356C181.491 269.397 181.564 269.405 181.629 269.405C181.768 269.405 181.906 269.34 181.988 269.202C182.094 269.014 182.028 268.77 181.833 268.656L177.868 266.375C177.62 266.539 177.369 266.713 177.124 266.904Z" fill="#EAEAEA"/>
<path d="M129.566 263.589C130.242 264.274 131.432 265.52 132.516 266.668C132.589 266.75 132.703 266.799 132.809 266.799C132.906 266.799 133.012 266.759 133.086 266.685C133.249 266.531 133.257 266.269 133.102 266.106C132.581 265.552 131.244 264.134 130.332 263.214C130.08 263.336 129.827 263.458 129.566 263.589Z" fill="#EAEAEA"/>
<path d="M133.073 261.867C133.749 262.551 134.939 263.797 136.022 264.946C136.096 265.028 136.21 265.077 136.315 265.077C136.413 265.077 136.519 265.036 136.592 264.963C136.755 264.808 136.763 264.547 136.608 264.384C136.087 263.83 134.751 262.412 133.838 261.491C133.586 261.614 133.334 261.737 133.073 261.867Z" fill="#EAEAEA"/>
<path d="M125.535 265.579C126.228 266.28 127.376 267.485 128.428 268.601C128.509 268.683 128.615 268.732 128.729 268.732C128.827 268.732 128.925 268.692 129.006 268.618C129.169 268.463 129.177 268.21 129.023 268.039C128.51 267.493 127.206 266.116 126.31 265.196C126.057 265.326 125.796 265.456 125.535 265.579Z" fill="#EAEAEA"/>
<path d="M121.706 267.499C122.382 268.2 123.287 269.153 124.126 270.041C124.207 270.122 124.313 270.172 124.427 270.172C124.525 270.172 124.623 270.131 124.704 270.058C124.868 269.902 124.876 269.65 124.721 269.479C124.289 269.023 123.311 267.996 122.481 267.125H122.473C122.219 267.254 121.958 267.376 121.706 267.499Z" fill="#EAEAEA"/>
<path d="M117.972 269.389C118.563 270.009 119.263 270.745 119.92 271.438C119.999 271.524 120.1 271.568 120.215 271.568C120.317 271.568 120.41 271.532 120.497 271.459C120.656 271.301 120.663 271.048 120.511 270.875C120.158 270.5 119.436 269.749 118.729 269.006C118.477 269.136 118.224 269.266 117.972 269.389Z" fill="#EAEAEA"/>
<path d="M175.825 132.327H218.437V137.112H175.825V132.327Z" fill="#8988E5"/>
<path d="M162.532 92.395L186.98 137.141H117.273L94.9492 94.0098L162.532 92.395Z" fill="#8988E5"/>
<path d="M159.861 92.4592L184.275 137.141H114.567L92.2434 94.0098L159.861 92.4592Z" fill="#C5C3F4"/>
<path d="M190.481 135.946H195.562C195.904 135.946 196.18 135.669 196.18 135.328V134.391C196.18 134.049 195.903 133.772 195.562 133.772H190.481C190.139 133.772 189.862 134.049 189.862 134.391V135.328C189.862 135.669 190.139 135.946 190.481 135.946Z" fill="#6867A5"/>
<path d="M201.266 135.946H206.257C206.623 135.946 206.92 135.65 206.92 135.283V134.435C206.92 134.068 206.623 133.771 206.257 133.771H201.266C200.899 133.771 200.603 134.068 200.603 134.435V135.283C200.603 135.649 200.899 135.946 201.266 135.946Z" fill="#6867A5"/>
<path d="M208.195 244.245C208.195 244.245 207.104 246.168 205.298 247.773C202.427 250.324 198.701 252.121 194.901 252.676C193.06 252.945 191.242 253.493 190.549 253.283C189.905 253.087 190.794 252.727 190.794 252.727C190.794 252.727 206.042 243.097 208.195 244.245Z" fill="#91549B"/>
<path d="M204.483 238.207L208.195 244.245L187.724 254.728L183.528 247.089L204.483 238.207Z" fill="#56A6E8"/>
<path d="M139.505 259.014C137.487 258.401 140.97 260.517 142.972 261.436C150.017 264.669 157.334 263.139 157.923 263.448L157.461 261.072L139.505 259.014Z" fill="#91549B"/>
<path d="M159.765 255.678C159.928 255.038 136.204 251.183 136.204 251.183L135.016 258.143L157.864 262.738L159.765 255.678Z" fill="#56A6E8"/>
<path d="M0.203674 233.597L4.98602 266.14L5.58776 270.221C6.18953 274.341 9.7229 277.396 13.889 277.396H35.5027C39.7525 277.396 43.3314 274.212 43.8343 269.985L44.2376 266.536L48.1296 233.476C48.4269 230.939 46.4462 228.716 43.8949 228.716H4.42249C1.81774 228.716 -0.177296 231.024 0.203674 233.597Z" fill="#9E63A8"/>
<path d="M39.6647 188.37C32.8029 188.36 28.8272 200.548 29.7927 206.563C30.7581 212.578 28.3683 225.692 28.3683 225.692C28.3683 225.692 38.8624 228.562 38.4591 208.239C38.3595 203.199 45.0171 188.378 39.6647 188.37Z" fill="#8380C1"/>
<path d="M15.0272 197.92C15.0272 197.92 9.51897 187.101 6.47265 188.053C3.42632 189.004 0.951464 200.809 2.85488 204.807C4.75901 208.806 9.68205 227.655 15.0265 227.084C20.3709 226.512 30.4616 220.968 28.3677 216.886C26.2738 212.804 15.0272 197.92 15.0272 197.92Z" fill="#A099E0"/>
<path d="M27.2263 234.636C28.0633 230.636 33.1328 220.999 33.573 216.886C35.4316 215.097 42.6427 205.945 47.9402 206.458C53.8279 207.028 42.6542 223.635 35.5153 231.171C35.4035 229.136 26.7992 236.674 27.2263 234.636Z" fill="#A099E0"/>
<path d="M9.30407 231.069C11.0026 231.952 13.3938 232.478 15.9985 232.775C16.4935 232.836 16.9884 232.889 17.4986 232.927C22.3877 233.323 27.704 233.034 30.4985 232.813C31.7626 232.714 32.951 232.158 33.8421 231.252C34.1083 230.978 34.4136 230.665 34.7483 230.322C35.6625 229.378 36.4468 224.23 36.6907 222.958C37.2997 219.66 38.4044 188.077 24.1021 167.446C22.5558 165.215 20.8883 164.255 19.3876 164.187C19.0751 164.172 18.7786 164.194 18.4813 164.256C16.2958 164.682 14.6052 167.005 14.3837 169.845C13.432 182.365 13.1196 201.832 19.4561 208.686C29.0901 219.097 22.3199 223.262 19.1971 220.14C16.707 217.657 10.9261 204.787 6.69933 205.403C6.4403 205.442 6.18125 205.533 5.93737 205.678C5.15306 206.134 4.43732 207.17 3.83556 208.945C-0.0708427 220.4 2.7922 227.688 9.30407 231.069Z" fill="#C4B9FF"/>
<path d="M29.3991 230.902C29.3688 231.107 29.5131 231.298 29.7187 231.328C29.7418 231.336 29.757 231.336 29.7794 231.336C29.9619 231.336 30.1221 231.199 30.1524 231.009C30.2209 230.552 36.4738 187.157 19.3834 164.188C19.071 164.173 18.7745 164.195 18.4772 164.256C35.7436 186.852 29.4677 230.444 29.3991 230.902Z" fill="#A099E0"/>
<path d="M5.93812 205.678C6.34146 210.857 8.17704 226.355 15.9985 232.776C17.5296 234.04 19.2887 234.946 21.3141 235.365L21.4663 234.619C20.0045 234.322 18.6869 233.736 17.4986 232.929C9.05297 227.224 7.09546 210.424 6.69933 205.405C6.4403 205.442 6.18128 205.533 5.93812 205.678Z" fill="#A099E0"/>
<path d="M28.7935 188.374C28.8852 188.374 28.9775 188.342 29.0504 188.275C29.2063 188.133 29.2171 187.892 29.0749 187.737L19.384 177.103C19.2418 176.947 19.0008 176.935 18.8464 177.078C18.6913 177.219 18.6798 177.46 18.8219 177.616L28.5129 188.25C28.5872 188.333 28.6896 188.374 28.7935 188.374Z" fill="#A099E0"/>
<path d="M30.358 203.636C30.4496 203.636 30.5412 203.604 30.6141 203.538C30.7692 203.397 30.7815 203.156 30.6401 203L21.6692 193.097C21.5271 192.943 21.2861 192.93 21.1317 193.071C20.9758 193.212 20.9643 193.453 21.1057 193.609L30.0766 203.512C30.1516 203.594 30.2548 203.636 30.358 203.636Z" fill="#A099E0"/>
<path d="M30.8972 217.443C31.0257 217.443 31.1527 217.377 31.2234 217.258C32.4161 215.273 35.5454 210.07 35.6976 209.842C35.8145 209.667 35.7669 209.43 35.5923 209.313C35.4191 209.197 35.1824 209.243 35.0641 209.419C34.8707 209.709 30.7457 216.574 30.5704 216.865C30.4622 217.046 30.5206 217.279 30.7003 217.388C30.7623 217.425 30.8301 217.443 30.8972 217.443Z" fill="#A099E0"/>
<path d="M10.7313 225.057C10.885 225.057 11.03 224.963 11.0878 224.811L13.7473 217.763C13.8217 217.566 13.7221 217.346 13.5258 217.272C13.3267 217.2 13.1088 217.297 13.0352 217.494L10.3756 224.542C10.3013 224.739 10.4008 224.959 10.5971 225.033C10.6411 225.048 10.6866 225.057 10.7313 225.057Z" fill="#A099E0"/>
<path d="M29.3334 229.096C29.4085 229.096 29.4842 229.074 29.5506 229.029C29.7231 228.908 29.7664 228.671 29.6466 228.498C29.516 228.31 26.4314 223.878 24.7798 222.433C24.6218 222.296 24.3823 222.31 24.2423 222.47C24.1037 222.629 24.1204 222.868 24.2784 223.007C25.8593 224.389 28.9893 228.887 29.0203 228.933C29.0946 229.039 29.213 229.096 29.3334 229.096Z" fill="#A099E0"/>
<path d="M0.203674 233.597L0.957668 238.707L1.06446 239.469L4.55236 263.192C5.04734 266.528 7.47674 269.338 10.7742 270.054C11.4596 270.206 12.1754 270.283 12.9063 270.283H36.6752C40.788 270.244 44.177 267.023 44.664 262.941L47.421 239.469L47.5127 238.708L48.1296 233.476C48.4269 230.94 46.4462 228.716 43.8949 228.716H4.42249C1.81774 228.716 -0.177296 231.024 0.203674 233.597Z" fill="#BD79C6"/>
<path d="M0.957695 238.708L1.06374 239.469H47.421L47.5127 238.708H0.957695Z" fill="#9E63A8"/>
<path opacity="0.24" d="M78.4114 111.495L78.8428 112.636H88.7019L88.8975 111.495H78.4114Z" fill="#333232"/>
<path d="M277.593 57.8037C277.635 57.8037 277.678 57.7972 277.72 57.7835C277.934 57.7128 278.05 57.4827 277.98 57.2691C276.988 54.2552 278.002 53.0228 278.981 51.8301C279.592 51.087 280.223 50.3171 280.223 49.198C280.223 45.6834 276.818 44.5441 276.784 44.5325C276.572 44.4632 276.341 44.5809 276.271 44.7944C276.202 45.008 276.319 45.2375 276.532 45.3074C276.65 45.3457 279.409 46.2837 279.409 49.1972C279.409 50.0248 278.919 50.6216 278.351 51.3121C277.336 52.5466 276.074 54.0842 277.205 57.5231C277.263 57.6955 277.422 57.8037 277.593 57.8037Z" fill="#C4B9FF"/>
<path d="M128.269 115.893H138.521C139.312 115.893 139.955 115.252 139.955 114.46V113.804C139.955 113.013 139.313 112.371 138.521 112.371H128.27C127.478 112.371 126.836 113.012 126.836 113.804V114.46C126.836 115.252 127.478 115.893 128.269 115.893Z" fill="#F0F0FF"/>
<path d="M196.888 9.6217C196.888 9.6217 195.17 12.3138 197.041 14.8839C198.449 16.819 202.418 15.9597 203.126 14.6631L200.758 13.4848L196.888 9.6217Z" fill="#CEB08D"/>
<path d="M196.839 9.30636C196.054 11.9046 197.798 16.6631 201.222 15.8608C211.696 13.4061 220.066 23.3294 222.761 27.7438C223.547 29.0223 225.1 29.5036 226.421 28.9906C226.609 28.9278 226.792 28.8333 226.964 28.7157C227.047 28.6695 227.121 28.6168 227.194 28.5555L230.228 26.1896L230.729 25.8057L233.675 23.5113L233.792 23.4182C233.931 23.3056 234.061 23.1858 234.18 23.0524C234.789 22.3626 235.061 21.421 234.852 20.5133C234.565 19.2138 233.855 17.2144 232.187 14.2684C228.677 8.05738 222.463 3.72238 213.947 2.4936C204.578 1.14072 198.197 4.81118 196.839 9.30636Z" fill="#FFF0DC"/>
<path d="M224.877 10.7783L224.913 10.797C226.467 11.9219 231.514 16.0599 233.681 23.4882L233.799 23.3958C233.938 23.2832 234.067 23.1635 234.187 23.03C231.912 15.6018 226.846 11.45 225.272 10.3042C225.133 10.2104 224.93 10.2263 224.827 10.3576C224.725 10.4969 224.737 10.6765 224.877 10.7783Z" fill="#CEB08D"/>
<path d="M225.174 17.262C225.715 17.6553 228.569 20.5962 230.991 26.1867L231.492 25.8028C229.047 20.2246 226.205 17.257 225.533 16.7605C225.394 16.6667 225.21 16.6963 225.107 16.8276C225.005 16.9669 225.035 17.1603 225.174 17.262Z" fill="#CEB08D"/>
<path d="M221.562 21.1295C222.27 21.6447 225.722 24.4009 228.25 30.6675C228.439 30.6047 228.621 30.5102 228.793 30.3926C226.212 24.0027 222.648 21.1649 221.921 20.636C221.783 20.5422 221.588 20.5645 221.495 20.7031C221.393 20.843 221.422 21.0278 221.562 21.1295Z" fill="#CEB08D"/>
<path d="M111.276 272.029C114.054 273.487 117.373 273.956 120.995 273.956C124.133 273.956 127.503 273.61 130.959 273.249C134.285 272.91 137.727 272.549 141.09 272.498C150.325 272.347 156.343 270.168 158.443 269.266C158.464 269.071 158.479 268.862 158.486 268.66C156.725 269.454 150.664 271.806 141.082 271.957C137.691 272.008 134.242 272.369 130.901 272.715C123.78 273.451 117.005 274.151 112.004 271.791C111.752 271.871 111.507 271.95 111.276 272.029Z" fill="#EAEAEA"/>
<path d="M171.409 273.148C172.845 273.942 174.288 274.281 175.753 274.281C179.548 274.281 183.487 272.03 187.824 269.555C190.4 268.083 193.062 266.553 195.97 265.326C208.705 259.937 213.583 253.897 215.343 250.831C215.221 250.679 215.084 250.528 214.946 250.376C213.294 253.291 208.496 259.432 195.754 264.829C192.824 266.07 190.147 267.599 187.557 269.078C181.655 272.448 176.517 275.392 171.589 272.636C171.524 272.787 171.467 272.939 171.423 273.09C171.416 273.105 171.416 273.126 171.409 273.148Z" fill="#EAEAEA"/>
</svg>
