<svg width="98" height="23" viewBox="0 0 98 23" fill="none" xmlns="http://www.w3.org/2000/svg">
<path d="M0.00201869 1.27599C-0.0459813 1.09999 0.762019 1.01199 2.42602 1.01199C4.26602 1.01199 5.21002 1.16399 5.25802 1.46799L6.43402 11.572L8.97802 1.34799C9.05802 1.10799 9.68202 0.98799 10.85 0.98799C12.018 0.98799 12.642 1.09999 12.722 1.32399L15.218 11.62L16.61 1.41999C16.642 1.24399 17.01 1.12399 17.714 1.05999C18.418 0.99599 18.986 0.963991 19.418 0.963991C21.098 0.963991 21.914 1.07599 21.866 1.29999L18.962 17.212C18.898 17.452 18.442 17.628 17.594 17.74C16.746 17.852 16.058 17.908 15.53 17.908C13.546 17.908 12.506 17.684 12.41 17.236L10.778 10.636L9.00202 17.212C8.93802 17.5 8.37802 17.708 7.32202 17.836C6.77802 17.884 6.23402 17.908 5.69002 17.908L4.15402 17.836C3.09802 17.724 2.53802 17.524 2.47402 17.236L0.00201869 1.27599Z" fill="#40A2E3"/>
<path d="M27.461 17.668C27.461 17.812 26.789 17.884 25.445 17.884C24.117 17.884 23.453 17.772 23.453 17.548V1.10799C23.453 0.99599 23.701 0.91599 24.197 0.86799C24.693 0.81999 25.109 0.79599 25.445 0.79599C26.789 0.79599 27.461 0.93999 27.461 1.22799V6.02799C28.357 5.75599 29.037 5.61999 29.501 5.61999C30.717 5.61999 31.677 5.94799 32.381 6.60399C33.085 7.24399 33.437 8.44399 33.437 10.204V17.644C33.437 17.788 32.813 17.86 31.565 17.86C30.157 17.812 29.453 17.732 29.453 17.62V10.564C29.453 9.77999 29.197 9.38799 28.685 9.38799C28.333 9.38799 27.925 9.55599 27.461 9.89199V17.668Z" fill="#40A2E3"/>
<path d="M34.6365 5.95599C34.6365 5.77999 35.3645 5.69199 36.8205 5.69199C38.2925 5.69199 39.0525 5.77199 39.1005 5.93199L40.8285 11.596L42.4845 5.88399C42.5485 5.75599 43.0445 5.69199 43.9725 5.69199C46.1005 5.69199 47.1165 5.79599 47.0205 6.00399L41.3805 22.06C41.3645 22.156 40.9245 22.204 40.0605 22.204C39.2125 22.204 38.4205 22.172 37.6845 22.108C36.9485 22.06 36.5965 21.996 36.6285 21.916L38.7165 16.876L34.6365 5.95599Z" fill="#40A2E3"/>
<path d="M47.7911 1.27599C47.7431 1.09999 48.5511 1.01199 50.2151 1.01199C52.0551 1.01199 52.9991 1.16399 53.0471 1.46799L54.2231 11.572L56.7671 1.34799C56.8471 1.10799 57.4711 0.98799 58.6391 0.98799C59.8071 0.98799 60.4311 1.09999 60.5111 1.32399L63.0071 11.62L64.3991 1.41999C64.4311 1.24399 64.7991 1.12399 65.5031 1.05999C66.2071 0.99599 66.7751 0.963991 67.2071 0.963991C68.8871 0.963991 69.7031 1.07599 69.6551 1.29999L66.7511 17.212C66.6871 17.452 66.2311 17.628 65.3831 17.74C64.5351 17.852 63.8471 17.908 63.3191 17.908C61.3351 17.908 60.2951 17.684 60.1991 17.236L58.5671 10.636L56.7911 17.212C56.7271 17.5 56.1671 17.708 55.1111 17.836C54.5671 17.884 54.0231 17.908 53.4791 17.908L51.9431 17.836C50.8871 17.724 50.3271 17.524 50.2631 17.236L47.7911 1.27599Z" fill="#40A2E3"/>
<path d="M72.2853 9.12399C71.8373 8.32399 71.6133 7.67599 71.6133 7.17999C71.6133 6.66799 71.7493 6.33999 72.0213 6.19599C72.9333 5.79599 74.1813 5.59599 75.7653 5.59599C77.3653 5.59599 78.4933 5.97199 79.1493 6.72399C79.8053 7.45999 80.1333 8.55599 80.1333 10.012V13.804H80.9493C81.2213 13.804 81.4293 13.964 81.5733 14.284C81.7333 14.604 81.8133 15.044 81.8133 15.604C81.8133 16.164 81.6693 16.716 81.3813 17.26C81.1093 17.804 80.7333 18.076 80.2533 18.076C79.3893 18.076 78.6933 17.844 78.1653 17.38C77.9253 17.188 77.7413 16.956 77.6133 16.684C76.8773 17.612 75.7333 18.076 74.1813 18.076C73.0133 18.076 72.0293 17.66 71.2293 16.828C70.4293 15.996 70.0293 15.012 70.0293 13.876C70.0293 11.268 71.5893 9.96399 74.7093 9.96399H76.0293V9.72399C76.0293 9.30799 75.9573 9.04399 75.8133 8.93199C75.6853 8.80399 75.3733 8.73999 74.8773 8.73999C74.2693 8.73999 73.4053 8.86799 72.2853 9.12399ZM74.2053 13.54C74.2053 13.892 74.3013 14.164 74.4933 14.356C74.6853 14.532 74.9253 14.62 75.2133 14.62C75.5173 14.62 75.7893 14.5 76.0293 14.26V12.412H75.3573C74.5893 12.412 74.2053 12.788 74.2053 13.54Z" fill="#40A2E3"/>
<path d="M87.5638 17.692C87.5638 17.82 86.8278 17.884 85.3558 17.884C83.8998 17.884 83.1718 17.828 83.1718 17.716V5.93199C83.1718 5.81999 83.8998 5.76399 85.3558 5.76399C86.8278 5.76399 87.5638 5.81199 87.5638 5.90799V17.692ZM87.5638 4.49199C87.5638 4.60399 86.8278 4.65999 85.3558 4.65999C83.8998 4.65999 83.1718 4.61199 83.1718 4.51599V1.05999C83.1718 0.89999 83.8998 0.81999 85.3558 0.81999C86.8278 0.81999 87.5638 0.86799 87.5638 0.963991V4.49199Z" fill="#40A2E3"/>
<path d="M95.2543 17.692C95.2543 17.884 94.5823 17.98 93.2383 17.98C91.6383 17.916 90.8383 17.812 90.8383 17.668V9.17199H89.6143C89.2943 9.17199 89.1343 8.61999 89.1343 7.51599C89.1343 7.22799 89.1583 6.87599 89.2063 6.45999C89.2703 6.04399 89.3903 5.83599 89.5663 5.83599H90.8383V3.72399C90.8383 3.40399 91.5103 3.24399 92.8543 3.24399C94.2143 3.24399 94.8943 3.37199 94.8943 3.62799V5.16399L94.9183 5.83599H96.9583C97.2303 5.83599 97.3663 6.39599 97.3663 7.51599C97.3663 8.63599 97.2303 9.19599 96.9583 9.19599H95.2543V17.692Z" fill="#40A2E3"/>
</svg>
