<svg width="125" height="23" viewBox="0 0 125 23" fill="none" xmlns="http://www.w3.org/2000/svg">
<path d="M0.598912 1.27599C0.550912 1.09999 1.35891 1.01199 3.02291 1.01199C4.86291 1.01199 5.80691 1.16399 5.85491 1.46799L7.03091 11.572L9.57491 1.34799C9.65491 1.10799 10.2789 0.98799 11.4469 0.98799C12.6149 0.98799 13.2389 1.09999 13.3189 1.32399L15.8149 11.62L17.2069 1.41999C17.2389 1.24399 17.6069 1.12399 18.3109 1.05999C19.0149 0.99599 19.5829 0.963991 20.0149 0.963991C21.6949 0.963991 22.5109 1.07599 22.4629 1.29999L19.5589 17.212C19.4949 17.452 19.0389 17.628 18.1909 17.74C17.3429 17.852 16.6549 17.908 16.1269 17.908C14.1429 17.908 13.1029 17.684 13.0069 17.236L11.3749 10.636L9.59891 17.212C9.53491 17.5 8.97491 17.708 7.91891 17.836C7.37491 17.884 6.83091 17.908 6.28691 17.908L4.75091 17.836C3.69491 17.724 3.13491 17.524 3.07091 17.236L0.598912 1.27599Z" fill="#40A2E3"/>
<path d="M28.0579 17.668C28.0579 17.812 27.3859 17.884 26.0419 17.884C24.7139 17.884 24.0499 17.772 24.0499 17.548V1.10799C24.0499 0.99599 24.2979 0.91599 24.7939 0.86799C25.2899 0.81999 25.7059 0.79599 26.0419 0.79599C27.3859 0.79599 28.0579 0.93999 28.0579 1.22799V6.02799C28.9539 5.75599 29.6339 5.61999 30.0979 5.61999C31.3139 5.61999 32.2739 5.94799 32.9779 6.60399C33.6819 7.24399 34.0339 8.44399 34.0339 10.204V17.644C34.0339 17.788 33.4099 17.86 32.1619 17.86C30.7539 17.812 30.0499 17.732 30.0499 17.62V10.564C30.0499 9.77999 29.7939 9.38799 29.2819 9.38799C28.9299 9.38799 28.5219 9.55599 28.0579 9.89199V17.668Z" fill="#40A2E3"/>
<path d="M35.2333 5.95599C35.2333 5.77999 35.9613 5.69199 37.4174 5.69199C38.8894 5.69199 39.6493 5.77199 39.6973 5.93199L41.4254 11.596L43.0813 5.88399C43.1453 5.75599 43.6413 5.69199 44.5694 5.69199C46.6973 5.69199 47.7134 5.79599 47.6174 6.00399L41.9773 22.06C41.9613 22.156 41.5213 22.204 40.6573 22.204C39.8093 22.204 39.0173 22.172 38.2813 22.108C37.5453 22.06 37.1933 21.996 37.2253 21.916L39.3134 16.876L35.2333 5.95599Z" fill="#40A2E3"/>
<path d="M48.388 1.27599C48.34 1.09999 49.148 1.01199 50.812 1.01199C52.652 1.01199 53.596 1.16399 53.644 1.46799L54.82 11.572L57.364 1.34799C57.444 1.10799 58.068 0.98799 59.236 0.98799C60.404 0.98799 61.028 1.09999 61.108 1.32399L63.604 11.62L64.996 1.41999C65.028 1.24399 65.396 1.12399 66.1 1.05999C66.804 0.99599 67.372 0.963991 67.804 0.963991C69.484 0.963991 70.3 1.07599 70.252 1.29999L67.348 17.212C67.284 17.452 66.828 17.628 65.98 17.74C65.132 17.852 64.444 17.908 63.916 17.908C61.932 17.908 60.892 17.684 60.796 17.236L59.164 10.636L57.388 17.212C57.324 17.5 56.764 17.708 55.708 17.836C55.164 17.884 54.62 17.908 54.076 17.908L52.54 17.836C51.484 17.724 50.924 17.524 50.86 17.236L48.388 1.27599Z" fill="#40A2E3"/>
<path d="M72.8822 9.12399C72.4342 8.32399 72.2102 7.67599 72.2102 7.17999C72.2102 6.66799 72.3462 6.33999 72.6182 6.19599C73.5302 5.79599 74.7782 5.59599 76.3622 5.59599C77.9622 5.59599 79.0902 5.97199 79.7462 6.72399C80.4022 7.45999 80.7302 8.55599 80.7302 10.012V13.804H81.5462C81.8182 13.804 82.0262 13.964 82.1702 14.284C82.3302 14.604 82.4102 15.044 82.4102 15.604C82.4102 16.164 82.2662 16.716 81.9782 17.26C81.7062 17.804 81.3302 18.076 80.8502 18.076C79.9862 18.076 79.2902 17.844 78.7622 17.38C78.5222 17.188 78.3382 16.956 78.2102 16.684C77.4742 17.612 76.3302 18.076 74.7782 18.076C73.6102 18.076 72.6262 17.66 71.8262 16.828C71.0262 15.996 70.6262 15.012 70.6262 13.876C70.6262 11.268 72.1862 9.96399 75.3062 9.96399H76.6262V9.72399C76.6262 9.30799 76.5542 9.04399 76.4102 8.93199C76.2822 8.80399 75.9702 8.73999 75.4742 8.73999C74.8662 8.73999 74.0022 8.86799 72.8822 9.12399ZM74.8022 13.54C74.8022 13.892 74.8982 14.164 75.0902 14.356C75.2822 14.532 75.5222 14.62 75.8102 14.62C76.1142 14.62 76.3862 14.5 76.6262 14.26V12.412H75.9542C75.1862 12.412 74.8022 12.788 74.8022 13.54Z" fill="#40A2E3"/>
<path d="M88.1607 17.692C88.1607 17.82 87.4247 17.884 85.9527 17.884C84.4967 17.884 83.7687 17.828 83.7687 17.716V5.93199C83.7687 5.81999 84.4967 5.76399 85.9527 5.76399C87.4247 5.76399 88.1607 5.81199 88.1607 5.90799V17.692ZM88.1607 4.49199C88.1607 4.60399 87.4247 4.65999 85.9527 4.65999C84.4967 4.65999 83.7687 4.61199 83.7687 4.51599V1.05999C83.7687 0.89999 84.4967 0.81999 85.9527 0.81999C87.4247 0.81999 88.1607 0.86799 88.1607 0.963991V4.49199Z" fill="#40A2E3"/>
<path d="M95.8512 17.692C95.8512 17.884 95.1792 17.98 93.8352 17.98C92.2352 17.916 91.4352 17.812 91.4352 17.668V9.17199H90.2112C89.8912 9.17199 89.7312 8.61999 89.7312 7.51599C89.7312 7.22799 89.7552 6.87599 89.8032 6.45999C89.8672 6.04399 89.9872 5.83599 90.1632 5.83599H91.4352V3.72399C91.4352 3.40399 92.1072 3.24399 93.4512 3.24399C94.8112 3.24399 95.4912 3.37199 95.4912 3.62799V5.16399L95.5152 5.83599H97.5552C97.8272 5.83599 97.9632 6.39599 97.9632 7.51599C97.9632 8.63599 97.8272 9.19599 97.5552 9.19599H95.8512V17.692Z" fill="#40A2E3"/>
<path d="M103.789 12.028C102.818 12.028 102.333 11.9213 102.333 11.708V1.33999C102.333 0.977324 102.498 0.79599 102.829 0.79599H105.645C107.224 0.79599 108.36 1.12132 109.053 1.77199C109.757 2.42266 110.109 3.36666 110.109 4.60399C110.109 5.62799 109.778 6.56666 109.117 7.41999C108.786 7.84666 108.301 8.18799 107.661 8.44399C107.021 8.69999 106.274 8.82799 105.421 8.82799V11.692C105.421 11.82 105.218 11.9107 104.813 11.964C104.418 12.0067 104.077 12.028 103.789 12.028ZM105.421 3.57999V6.10799H105.629C106.002 6.10799 106.317 5.99066 106.573 5.75599C106.829 5.52132 106.957 5.19066 106.957 4.76399C106.957 4.33732 106.866 4.03332 106.685 3.85199C106.514 3.67066 106.205 3.57999 105.757 3.57999H105.421Z" fill="#0D9276"/>
<path d="M114.946 11.98C114.946 12.0547 114.461 12.092 113.49 12.092C112.519 12.0707 112.034 12.028 112.034 11.964V6.65199H111.602C111.431 6.65199 111.293 6.55066 111.186 6.34799C111.09 6.13466 111.042 5.87332 111.042 5.56399C111.042 4.41199 111.383 3.83599 112.066 3.83599C112.546 3.83599 112.946 3.98532 113.266 4.28399C113.586 4.57199 113.746 4.90266 113.746 5.27599C113.97 4.83866 114.269 4.49199 114.642 4.23599C115.026 3.96932 115.415 3.83599 115.81 3.83599C116.429 3.83599 116.802 3.99599 116.93 4.31599C116.962 4.40132 116.978 4.52932 116.978 4.69999C116.978 4.85999 116.925 5.15332 116.818 5.57999C116.722 6.00666 116.621 6.31599 116.514 6.50799C116.407 6.69999 116.343 6.79599 116.322 6.79599C116.301 6.79599 116.199 6.75866 116.018 6.68399C115.847 6.59866 115.693 6.55599 115.554 6.55599C115.149 6.55599 114.946 6.87599 114.946 7.51599V11.98Z" fill="#0D9276"/>
<path d="M118.474 11.052C117.812 10.316 117.482 9.29732 117.482 7.99599C117.482 6.69466 117.812 5.67599 118.474 4.93999C119.146 4.20399 120.047 3.83599 121.178 3.83599C122.308 3.83599 123.204 4.20399 123.866 4.93999C124.527 5.67599 124.858 6.69466 124.858 7.99599C124.858 9.29732 124.527 10.316 123.866 11.052C123.204 11.788 122.308 12.156 121.178 12.156C120.047 12.156 119.146 11.788 118.474 11.052ZM121.178 6.50799C120.58 6.50799 120.282 6.99866 120.282 7.97999C120.282 8.96132 120.58 9.45199 121.178 9.45199C121.786 9.45199 122.09 8.96132 122.09 7.97999C122.09 6.99866 121.786 6.50799 121.178 6.50799Z" fill="#0D9276"/>
</svg>
