<svg width="132" height="27" viewBox="0 0 132 27" fill="none" xmlns="http://www.w3.org/2000/svg">
<path d="M0.354039 5.65755C0.306039 5.48155 1.11404 5.39355 2.77804 5.39355C4.61804 5.39355 5.56204 5.54555 5.61004 5.84955L6.78604 15.9536L9.33004 5.72955C9.41004 5.48955 10.034 5.36955 11.202 5.36955C12.37 5.36955 12.994 5.48155 13.074 5.70555L15.57 16.0016L16.962 5.80155C16.994 5.62555 17.362 5.50555 18.066 5.44155C18.77 5.37755 19.338 5.34555 19.77 5.34555C21.45 5.34555 22.266 5.45755 22.218 5.68155L19.314 21.5936C19.25 21.8336 18.794 22.0096 17.946 22.1216C17.098 22.2336 16.41 22.2896 15.882 22.2896C13.898 22.2896 12.858 22.0656 12.762 21.6176L11.13 15.0176L9.35404 21.5936C9.29004 21.8816 8.73004 22.0896 7.67404 22.2176C7.13004 22.2656 6.58604 22.2896 6.04204 22.2896L4.50604 22.2176C3.45004 22.1056 2.89004 21.9056 2.82604 21.6176L0.354039 5.65755Z" fill="#F64060"/>
<path d="M27.813 22.0496C27.813 22.1936 27.141 22.2656 25.797 22.2656C24.469 22.2656 23.805 22.1536 23.805 21.9296V5.48955C23.805 5.37755 24.053 5.29755 24.549 5.24955C25.045 5.20155 25.461 5.17755 25.797 5.17755C27.141 5.17755 27.813 5.32155 27.813 5.60955V10.4096C28.709 10.1376 29.389 10.0016 29.853 10.0016C31.069 10.0016 32.029 10.3296 32.733 10.9856C33.437 11.6256 33.789 12.8256 33.789 14.5856V22.0256C33.789 22.1696 33.165 22.2416 31.917 22.2416C30.509 22.1936 29.805 22.1136 29.805 22.0016V14.9456C29.805 14.1616 29.549 13.7696 29.037 13.7696C28.685 13.7696 28.277 13.9376 27.813 14.2736V22.0496Z" fill="#F64060"/>
<path d="M34.9885 10.3376C34.9885 10.1616 35.7165 10.0736 37.1725 10.0736C38.6445 10.0736 39.4045 10.1536 39.4525 10.3136L41.1805 15.9776L42.8365 10.2656C42.9005 10.1376 43.3965 10.0736 44.3245 10.0736C46.4525 10.0736 47.4685 10.1776 47.3725 10.3856L41.7325 26.4416C41.7165 26.5376 41.2765 26.5856 40.4125 26.5856C39.5645 26.5856 38.7725 26.5536 38.0365 26.4896C37.3005 26.4416 36.9485 26.3776 36.9805 26.2976L39.0685 21.2576L34.9885 10.3376Z" fill="#F64060"/>
<path d="M48.1431 5.65755C48.0951 5.48155 48.9031 5.39355 50.5671 5.39355C52.4071 5.39355 53.3511 5.54555 53.3991 5.84955L54.5751 15.9536L57.1191 5.72955C57.1991 5.48955 57.8231 5.36955 58.9911 5.36955C60.1591 5.36955 60.7831 5.48155 60.8631 5.70555L63.3591 16.0016L64.7511 5.80155C64.7831 5.62555 65.1511 5.50555 65.8551 5.44155C66.5591 5.37755 67.1271 5.34555 67.5591 5.34555C69.2391 5.34555 70.0551 5.45755 70.0071 5.68155L67.1031 21.5936C67.0391 21.8336 66.5831 22.0096 65.7351 22.1216C64.8871 22.2336 64.1991 22.2896 63.6711 22.2896C61.6871 22.2896 60.6471 22.0656 60.5511 21.6176L58.9191 15.0176L57.1431 21.5936C57.0791 21.8816 56.5191 22.0896 55.4631 22.2176C54.9191 22.2656 54.3751 22.2896 53.8311 22.2896L52.2951 22.2176C51.2391 22.1056 50.6791 21.9056 50.6151 21.6176L48.1431 5.65755Z" fill="#F64060"/>
<path d="M75.6021 22.0496C75.6021 22.1936 74.9301 22.2656 73.5861 22.2656C72.2581 22.2656 71.5941 22.1536 71.5941 21.9296V5.48955C71.5941 5.37755 71.8421 5.29755 72.3381 5.24955C72.8341 5.20155 73.2501 5.17755 73.5861 5.17755C74.9301 5.17755 75.6021 5.32155 75.6021 5.60955V10.4096C76.4981 10.1376 77.1781 10.0016 77.6421 10.0016C78.8581 10.0016 79.8181 10.3296 80.5221 10.9856C81.2261 11.6256 81.5781 12.8256 81.5781 14.5856V22.0256C81.5781 22.1696 80.9541 22.2416 79.7061 22.2416C78.2981 22.1936 77.5941 22.1136 77.5941 22.0016V14.9456C77.5941 14.1616 77.3381 13.7696 76.8261 13.7696C76.4741 13.7696 76.0661 13.9376 75.6021 14.2736V22.0496Z" fill="#F64060"/>
<path d="M92.6895 21.5696C91.6815 22.1616 90.3855 22.4576 88.8015 22.4576C87.2175 22.4576 85.8815 21.9216 84.7935 20.8496C83.7055 19.7616 83.1615 18.2656 83.1615 16.3616C83.1615 14.4416 83.6815 12.8976 84.7215 11.7296C85.7775 10.5616 87.1055 9.97755 88.7055 9.97755C90.3055 9.97755 91.5375 10.3856 92.4015 11.2016C93.2815 12.0176 93.7215 13.0096 93.7215 14.1776C93.7215 16.7696 92.2335 18.0656 89.2575 18.0656H87.6015C87.6015 18.5456 87.7295 18.8816 87.9855 19.0736C88.2575 19.2496 88.6495 19.3376 89.1615 19.3376C90.2815 19.3376 91.3455 19.0816 92.3535 18.5696C92.3695 18.5536 92.4415 18.6656 92.5695 18.9056C92.9535 19.5936 93.1455 20.1776 93.1455 20.6576C93.1455 21.1216 92.9935 21.4256 92.6895 21.5696ZM89.6895 14.6336C89.6895 13.9616 89.3615 13.6256 88.7055 13.6256C88.4015 13.6256 88.1375 13.7216 87.9135 13.9136C87.7055 14.0896 87.6015 14.3536 87.6015 14.7056V15.4496H88.8975C89.4255 15.4496 89.6895 15.1776 89.6895 14.6336Z" fill="#F64060"/>
<path d="M100.305 22.0736C100.305 22.1856 99.7294 22.2416 98.5774 22.2416C96.9774 22.1936 96.1774 22.1056 96.1774 21.9776V14.2016H95.5534C95.1374 14.2016 94.8654 13.8496 94.7374 13.1456C94.7054 12.9376 94.6894 12.7296 94.6894 12.5216C94.6894 12.0256 94.7854 11.5296 94.9774 11.0336C95.2654 10.3296 95.7134 9.97755 96.3214 9.97755C96.9294 9.97755 97.4734 10.1216 97.9534 10.4096C98.4334 10.6976 98.7534 10.9856 98.9134 11.2736C99.9214 10.4096 101.121 9.97755 102.513 9.97755C103.905 9.97755 104.913 10.3536 105.537 11.1056C106.161 11.8576 106.473 13.0896 106.473 14.8016V22.0016C106.473 22.1936 105.785 22.2896 104.409 22.2896C103.049 22.2896 102.369 22.1936 102.369 22.0016V15.0656C102.369 14.2656 102.089 13.8656 101.529 13.8656C101.369 13.8656 101.145 13.9376 100.857 14.0816C100.569 14.2096 100.385 14.3056 100.305 14.3696V22.0736Z" fill="#F64060"/>
<path d="M110.192 15.4464C109.221 15.4464 108.736 15.3398 108.736 15.1264V4.75843C108.736 4.39576 108.901 4.21443 109.232 4.21443H112.048C113.627 4.21443 114.763 4.53976 115.456 5.19043C116.16 5.84109 116.512 6.7851 116.512 8.02243C116.512 9.04643 116.181 9.9851 115.52 10.8384C115.189 11.2651 114.704 11.6064 114.064 11.8624C113.424 12.1184 112.677 12.2464 111.824 12.2464V15.1104C111.824 15.2384 111.621 15.3291 111.216 15.3824C110.821 15.4251 110.48 15.4464 110.192 15.4464ZM111.824 6.99843V9.52643H112.032C112.405 9.52643 112.72 9.40909 112.976 9.17443C113.232 8.93976 113.36 8.60909 113.36 8.18243C113.36 7.75576 113.269 7.45176 113.088 7.27043C112.917 7.0891 112.608 6.99843 112.16 6.99843H111.824ZM121.349 15.3984C121.349 15.4731 120.864 15.5104 119.893 15.5104C118.922 15.4891 118.437 15.4464 118.437 15.3824V10.0704H118.005C117.834 10.0704 117.696 9.9691 117.589 9.76643C117.493 9.5531 117.445 9.29176 117.445 8.98243C117.445 7.83043 117.786 7.25443 118.469 7.25443C118.949 7.25443 119.349 7.40376 119.669 7.70243C119.989 7.99043 120.149 8.3211 120.149 8.69443C120.373 8.2571 120.672 7.91043 121.045 7.65443C121.429 7.38776 121.818 7.25443 122.213 7.25443C122.832 7.25443 123.205 7.41443 123.333 7.73443C123.365 7.81976 123.381 7.94776 123.381 8.11843C123.381 8.27843 123.328 8.57176 123.221 8.99843C123.125 9.42509 123.024 9.73443 122.917 9.92643C122.81 10.1184 122.746 10.2144 122.725 10.2144C122.704 10.2144 122.602 10.1771 122.421 10.1024C122.25 10.0171 122.096 9.97443 121.957 9.97443C121.552 9.97443 121.349 10.2944 121.349 10.9344V15.3984ZM124.877 14.4704C124.215 13.7344 123.885 12.7158 123.885 11.4144C123.885 10.1131 124.215 9.09443 124.877 8.35843C125.549 7.62243 126.45 7.25443 127.581 7.25443C128.711 7.25443 129.607 7.62243 130.269 8.35843C130.93 9.09443 131.261 10.1131 131.261 11.4144C131.261 12.7158 130.93 13.7344 130.269 14.4704C129.607 15.2064 128.711 15.5744 127.581 15.5744C126.45 15.5744 125.549 15.2064 124.877 14.4704ZM127.581 9.92643C126.983 9.92643 126.685 10.4171 126.685 11.3984C126.685 12.3798 126.983 12.8704 127.581 12.8704C128.189 12.8704 128.493 12.3798 128.493 11.3984C128.493 10.4171 128.189 9.92643 127.581 9.92643Z" fill="#720000"/>
</svg>
