<svg width="125" height="22" viewBox="0 0 125 22" fill="none" xmlns="http://www.w3.org/2000/svg">
<path d="M0.00201869 0.48C-0.0459813 0.304 0.762019 0.216 2.42602 0.216C4.26602 0.216 5.21002 0.368 5.25802 0.672L6.43402 10.776L8.97802 0.552C9.05802 0.312 9.68202 0.192 10.85 0.192C12.018 0.192 12.642 0.304 12.722 0.528L15.218 10.824L16.61 0.624001C16.642 0.448 17.01 0.328 17.714 0.263999C18.418 0.2 18.986 0.168001 19.418 0.168001C21.098 0.168001 21.914 0.280001 21.866 0.504001L18.962 16.416C18.898 16.656 18.442 16.832 17.594 16.944C16.746 17.056 16.058 17.112 15.53 17.112C13.546 17.112 12.506 16.888 12.41 16.44L10.778 9.84L9.00202 16.416C8.93802 16.704 8.37802 16.912 7.32202 17.04C6.77802 17.088 6.23402 17.112 5.69002 17.112L4.15402 17.04C3.09802 16.928 2.53802 16.728 2.47402 16.44L0.00201869 0.48Z" fill="#F64060"/>
<path d="M27.461 16.872C27.461 17.016 26.789 17.088 25.445 17.088C24.117 17.088 23.453 16.976 23.453 16.752V0.312C23.453 0.2 23.701 0.12 24.197 0.0720005C24.693 0.0240002 25.109 0 25.445 0C26.789 0 27.461 0.144 27.461 0.432V5.232C28.357 4.96 29.037 4.824 29.501 4.824C30.717 4.824 31.677 5.152 32.381 5.808C33.085 6.448 33.437 7.648 33.437 9.408V16.848C33.437 16.992 32.813 17.064 31.565 17.064C30.157 17.016 29.453 16.936 29.453 16.824V9.768C29.453 8.984 29.197 8.592 28.685 8.592C28.333 8.592 27.925 8.76 27.461 9.096V16.872Z" fill="#F64060"/>
<path d="M34.6365 5.16C34.6365 4.984 35.3645 4.896 36.8205 4.896C38.2925 4.896 39.0525 4.976 39.1005 5.136L40.8285 10.8L42.4845 5.088C42.5485 4.96 43.0445 4.896 43.9725 4.896C46.1005 4.896 47.1165 5 47.0205 5.208L41.3805 21.264C41.3645 21.36 40.9245 21.408 40.0605 21.408C39.2125 21.408 38.4205 21.376 37.6845 21.312C36.9485 21.264 36.5965 21.2 36.6285 21.12L38.7165 16.08L34.6365 5.16Z" fill="#F64060"/>
<path d="M47.7911 0.48C47.7431 0.304 48.5511 0.216 50.2151 0.216C52.0551 0.216 52.9991 0.368 53.0471 0.672L54.2231 10.776L56.7671 0.552C56.8471 0.312 57.4711 0.192 58.6391 0.192C59.8071 0.192 60.4311 0.304 60.5111 0.528L63.0071 10.824L64.3991 0.624001C64.4311 0.448 64.7991 0.328 65.5031 0.263999C66.2071 0.2 66.7751 0.168001 67.2071 0.168001C68.8871 0.168001 69.7031 0.280001 69.6551 0.504001L66.7511 16.416C66.6871 16.656 66.2311 16.832 65.3831 16.944C64.5351 17.056 63.8471 17.112 63.3191 17.112C61.3351 17.112 60.2951 16.888 60.1991 16.44L58.5671 9.84L56.7911 16.416C56.7271 16.704 56.1671 16.912 55.1111 17.04C54.5671 17.088 54.0231 17.112 53.4791 17.112L51.9431 17.04C50.8871 16.928 50.3271 16.728 50.2631 16.44L47.7911 0.48Z" fill="#F64060"/>
<path d="M72.2853 8.328C71.8373 7.528 71.6133 6.88 71.6133 6.384C71.6133 5.872 71.7493 5.544 72.0213 5.4C72.9333 5 74.1813 4.8 75.7653 4.8C77.3653 4.8 78.4933 5.176 79.1493 5.928C79.8053 6.664 80.1333 7.76 80.1333 9.216V13.008H80.9493C81.2213 13.008 81.4293 13.168 81.5733 13.488C81.7333 13.808 81.8133 14.248 81.8133 14.808C81.8133 15.368 81.6693 15.92 81.3813 16.464C81.1093 17.008 80.7333 17.28 80.2533 17.28C79.3893 17.28 78.6933 17.048 78.1653 16.584C77.9253 16.392 77.7413 16.16 77.6133 15.888C76.8773 16.816 75.7333 17.28 74.1813 17.28C73.0133 17.28 72.0293 16.864 71.2293 16.032C70.4293 15.2 70.0293 14.216 70.0293 13.08C70.0293 10.472 71.5893 9.168 74.7093 9.168H76.0293V8.928C76.0293 8.512 75.9573 8.248 75.8133 8.136C75.6853 8.008 75.3733 7.944 74.8773 7.944C74.2693 7.944 73.4053 8.072 72.2853 8.328ZM74.2053 12.744C74.2053 13.096 74.3013 13.368 74.4933 13.56C74.6853 13.736 74.9253 13.824 75.2133 13.824C75.5173 13.824 75.7893 13.704 76.0293 13.464V11.616H75.3573C74.5893 11.616 74.2053 11.992 74.2053 12.744Z" fill="#F64060"/>
<path d="M87.5638 16.896C87.5638 17.024 86.8278 17.088 85.3558 17.088C83.8998 17.088 83.1718 17.032 83.1718 16.92V5.136C83.1718 5.024 83.8998 4.968 85.3558 4.968C86.8278 4.968 87.5638 5.016 87.5638 5.112V16.896ZM87.5638 3.696C87.5638 3.808 86.8278 3.864 85.3558 3.864C83.8998 3.864 83.1718 3.816 83.1718 3.72V0.263999C83.1718 0.104 83.8998 0.0239997 85.3558 0.0239997C86.8278 0.0239997 87.5638 0.072 87.5638 0.168001V3.696Z" fill="#F64060"/>
<path d="M95.2543 16.896C95.2543 17.088 94.5823 17.184 93.2383 17.184C91.6383 17.12 90.8383 17.016 90.8383 16.872V8.376H89.6143C89.2943 8.376 89.1343 7.824 89.1343 6.72C89.1343 6.432 89.1583 6.08 89.2063 5.664C89.2703 5.248 89.3903 5.04 89.5663 5.04H90.8383V2.928C90.8383 2.608 91.5103 2.448 92.8543 2.448C94.2143 2.448 94.8943 2.576 94.8943 2.832V4.368L94.9183 5.04H96.9583C97.2303 5.04 97.3663 5.6 97.3663 6.72C97.3663 7.84 97.2303 8.4 96.9583 8.4H95.2543V16.896Z" fill="#F64060"/>
<path d="M103.192 11.232C102.221 11.232 101.736 11.1253 101.736 10.912V0.544001C101.736 0.181334 101.901 0 102.232 0H105.048C106.627 0 107.763 0.325333 108.456 0.976C109.16 1.62667 109.512 2.57067 109.512 3.808C109.512 4.832 109.181 5.77067 108.52 6.624C108.189 7.05067 107.704 7.392 107.064 7.648C106.424 7.904 105.677 8.032 104.824 8.032V10.896C104.824 11.024 104.621 11.1147 104.216 11.168C103.821 11.2107 103.48 11.232 103.192 11.232ZM104.824 2.784V5.312H105.032C105.405 5.312 105.72 5.19467 105.976 4.96C106.232 4.72533 106.36 4.39467 106.36 3.968C106.36 3.54133 106.269 3.23733 106.088 3.056C105.917 2.87467 105.608 2.784 105.16 2.784H104.824Z" fill="#720000"/>
<path d="M114.349 11.184C114.349 11.2587 113.864 11.296 112.893 11.296C111.922 11.2747 111.437 11.232 111.437 11.168V5.856H111.005C110.834 5.856 110.696 5.75467 110.589 5.552C110.493 5.33867 110.445 5.07733 110.445 4.768C110.445 3.616 110.786 3.04 111.469 3.04C111.949 3.04 112.349 3.18933 112.669 3.488C112.989 3.776 113.149 4.10667 113.149 4.48C113.373 4.04267 113.672 3.696 114.045 3.44C114.429 3.17333 114.818 3.04 115.213 3.04C115.832 3.04 116.205 3.2 116.333 3.52C116.365 3.60533 116.381 3.73333 116.381 3.904C116.381 4.064 116.328 4.35733 116.221 4.784C116.125 5.21067 116.024 5.52 115.917 5.712C115.81 5.904 115.746 6 115.725 6C115.704 6 115.602 5.96267 115.421 5.888C115.25 5.80267 115.096 5.76 114.957 5.76C114.552 5.76 114.349 6.08 114.349 6.72V11.184Z" fill="#720000"/>
<path d="M117.877 10.256C117.216 9.52 116.885 8.50133 116.885 7.2C116.885 5.89867 117.216 4.88 117.877 4.144C118.549 3.408 119.45 3.04 120.581 3.04C121.712 3.04 122.607 3.408 123.269 4.144C123.93 4.88 124.261 5.89867 124.261 7.2C124.261 8.50133 123.93 9.52 123.269 10.256C122.607 10.992 121.712 11.36 120.581 11.36C119.45 11.36 118.549 10.992 117.877 10.256ZM120.581 5.712C119.984 5.712 119.685 6.20267 119.685 7.184C119.685 8.16533 119.984 8.656 120.581 8.656C121.189 8.656 121.493 8.16533 121.493 7.184C121.493 6.20267 121.189 5.712 120.581 5.712Z" fill="#720000"/>
</svg>
