<svg width="107" height="23" viewBox="0 0 107 23" fill="none" xmlns="http://www.w3.org/2000/svg">
<path d="M0.00201869 1.27599C-0.0459813 1.09999 0.762019 1.01199 2.42602 1.01199C4.26602 1.01199 5.21002 1.16399 5.25802 1.46799L6.43402 11.572L8.97802 1.34799C9.05802 1.10799 9.68202 0.98799 10.85 0.98799C12.018 0.98799 12.642 1.09999 12.722 1.32399L15.218 11.62L16.61 1.41999C16.642 1.24399 17.01 1.12399 17.714 1.05999C18.418 0.99599 18.986 0.963991 19.418 0.963991C21.098 0.963991 21.914 1.07599 21.866 1.29999L18.962 17.212C18.898 17.452 18.442 17.628 17.594 17.74C16.746 17.852 16.058 17.908 15.53 17.908C13.546 17.908 12.506 17.684 12.41 17.236L10.778 10.636L9.00202 17.212C8.93802 17.5 8.37802 17.708 7.32202 17.836C6.77802 17.884 6.23402 17.908 5.69002 17.908L4.15402 17.836C3.09802 17.724 2.53802 17.524 2.47402 17.236L0.00201869 1.27599Z" fill="#F64060"/>
<path d="M27.461 17.668C27.461 17.812 26.789 17.884 25.445 17.884C24.117 17.884 23.453 17.772 23.453 17.548V1.10799C23.453 0.99599 23.701 0.91599 24.197 0.86799C24.693 0.81999 25.109 0.79599 25.445 0.79599C26.789 0.79599 27.461 0.93999 27.461 1.22799V6.02799C28.357 5.75599 29.037 5.61999 29.501 5.61999C30.717 5.61999 31.677 5.94799 32.381 6.60399C33.085 7.24399 33.437 8.44399 33.437 10.204V17.644C33.437 17.788 32.813 17.86 31.565 17.86C30.157 17.812 29.453 17.732 29.453 17.62V10.564C29.453 9.77999 29.197 9.38799 28.685 9.38799C28.333 9.38799 27.925 9.55599 27.461 9.89199V17.668Z" fill="#F64060"/>
<path d="M34.6365 5.95599C34.6365 5.77999 35.3645 5.69199 36.8205 5.69199C38.2925 5.69199 39.0525 5.77199 39.1005 5.93199L40.8285 11.596L42.4845 5.88399C42.5485 5.75599 43.0445 5.69199 43.9725 5.69199C46.1005 5.69199 47.1165 5.79599 47.0205 6.00399L41.3805 22.06C41.3645 22.156 40.9245 22.204 40.0605 22.204C39.2125 22.204 38.4205 22.172 37.6845 22.108C36.9485 22.06 36.5965 21.996 36.6285 21.916L38.7165 16.876L34.6365 5.95599Z" fill="#F64060"/>
<path d="M47.7911 1.27599C47.7431 1.09999 48.5511 1.01199 50.2151 1.01199C52.0551 1.01199 52.9991 1.16399 53.0471 1.46799L54.2231 11.572L56.7671 1.34799C56.8471 1.10799 57.4711 0.98799 58.6391 0.98799C59.8071 0.98799 60.4311 1.09999 60.5111 1.32399L63.0071 11.62L64.3991 1.41999C64.4311 1.24399 64.7991 1.12399 65.5031 1.05999C66.2071 0.99599 66.7751 0.963991 67.2071 0.963991C68.8871 0.963991 69.7031 1.07599 69.6551 1.29999L66.7511 17.212C66.6871 17.452 66.2311 17.628 65.3831 17.74C64.5351 17.852 63.8471 17.908 63.3191 17.908C61.3351 17.908 60.2951 17.684 60.1991 17.236L58.5671 10.636L56.7911 17.212C56.7271 17.5 56.1671 17.708 55.1111 17.836C54.5671 17.884 54.0231 17.908 53.4791 17.908L51.9431 17.836C50.8871 17.724 50.3271 17.524 50.2631 17.236L47.7911 1.27599Z" fill="#F64060"/>
<path d="M75.2501 17.668C75.2501 17.812 74.5781 17.884 73.2341 17.884C71.9061 17.884 71.2421 17.772 71.2421 17.548V1.10799C71.2421 0.99599 71.4901 0.91599 71.9861 0.86799C72.4821 0.81999 72.8981 0.79599 73.2341 0.79599C74.5781 0.79599 75.2501 0.93999 75.2501 1.22799V6.02799C76.1461 5.75599 76.8261 5.61999 77.2901 5.61999C78.5061 5.61999 79.4661 5.94799 80.1701 6.60399C80.8741 7.24399 81.2261 8.44399 81.2261 10.204V17.644C81.2261 17.788 80.6021 17.86 79.3541 17.86C77.9461 17.812 77.2421 17.732 77.2421 17.62V10.564C77.2421 9.77999 76.9861 9.38799 76.4741 9.38799C76.1221 9.38799 75.7141 9.55599 75.2501 9.89199V17.668Z" fill="#F64060"/>
<path d="M92.3375 17.188C91.3295 17.78 90.0335 18.076 88.4495 18.076C86.8655 18.076 85.5295 17.54 84.4415 16.468C83.3535 15.38 82.8095 13.884 82.8095 11.98C82.8095 10.06 83.3295 8.51599 84.3695 7.34799C85.4255 6.17999 86.7535 5.59599 88.3535 5.59599C89.9535 5.59599 91.1855 6.00399 92.0495 6.81999C92.9295 7.63599 93.3695 8.62799 93.3695 9.79599C93.3695 12.388 91.8815 13.684 88.9055 13.684H87.2495C87.2495 14.164 87.3775 14.5 87.6335 14.692C87.9055 14.868 88.2975 14.956 88.8095 14.956C89.9295 14.956 90.9935 14.7 92.0015 14.188C92.0175 14.172 92.0895 14.284 92.2175 14.524C92.6015 15.212 92.7935 15.796 92.7935 16.276C92.7935 16.74 92.6415 17.044 92.3375 17.188ZM89.3375 10.252C89.3375 9.57999 89.0095 9.24399 88.3535 9.24399C88.0495 9.24399 87.7855 9.33999 87.5615 9.53199C87.3535 9.70799 87.2495 9.97199 87.2495 10.324V11.068H88.5455C89.0735 11.068 89.3375 10.796 89.3375 10.252Z" fill="#F64060"/>
<path d="M99.9534 17.692C99.9534 17.804 99.3774 17.86 98.2254 17.86C96.6254 17.812 95.8254 17.724 95.8254 17.596V9.81999H95.2014C94.7854 9.81999 94.5134 9.46799 94.3854 8.76399C94.3534 8.55599 94.3374 8.34799 94.3374 8.13999C94.3374 7.64399 94.4334 7.14799 94.6254 6.65199C94.9134 5.94799 95.3614 5.59599 95.9694 5.59599C96.5774 5.59599 97.1214 5.73999 97.6014 6.02799C98.0814 6.31599 98.4014 6.60399 98.5614 6.89199C99.5694 6.02799 100.769 5.59599 102.161 5.59599C103.553 5.59599 104.561 5.97199 105.185 6.72399C105.809 7.47599 106.121 8.70799 106.121 10.42V17.62C106.121 17.812 105.433 17.908 104.057 17.908C102.697 17.908 102.017 17.812 102.017 17.62V10.684C102.017 9.88399 101.737 9.48399 101.177 9.48399C101.017 9.48399 100.793 9.55599 100.505 9.69999C100.217 9.82799 100.033 9.92399 99.9534 9.98799V17.692Z" fill="#F64060"/>
</svg>
